<svg width="329" height="98" viewBox="0 0 329 98" fill="none" xmlns="http://www.w3.org/2000/svg">
<mask id="mask0_224_15" style="mask-type:luminance" maskUnits="userSpaceOnUse" x="188" y="0" width="141" height="79">
<path d="M188.668 0H328.918V78.561H188.668V0Z" fill="white"/>
</mask>
<g mask="url(#mask0_224_15)">
<path d="M234.858 0.362464C234.542 0.260858 234.224 0.0548986 233.88 0.0933447C233.699 0.30205 233.523 0.518994 233.323 0.711222C233.029 0.823812 232.705 0.793605 232.395 0.810082C231.508 0.80459 230.612 0.925419 229.783 1.23573C229.352 1.41697 229.572 2.07055 229.138 2.27651C228.418 2.73511 228.031 3.50677 227.605 4.21252C227.781 4.22076 227.954 4.229 228.127 4.23724C227.894 4.52833 227.614 4.78372 227.416 5.10501C227.331 5.37413 227.342 5.65973 227.35 5.93983C227.666 5.93709 227.979 5.90688 228.295 5.90688C228.278 6.67854 228.108 7.44471 228.149 8.21911C228.193 8.70792 228.586 9.08414 228.668 9.56197C228.635 10.2183 228.317 10.8307 228.341 11.4925C228.657 11.7698 229.091 11.9483 229.245 12.3712C229.61 13.1264 230.039 13.8514 230.363 14.6286C230.508 14.9004 230.61 15.2904 230.967 15.3453C231.56 15.4414 232.164 15.3233 232.76 15.3782C233.078 15.6501 233.287 16.0401 233.378 16.4465C232.903 16.9875 232.299 17.4131 231.909 18.0283C231.192 19.1294 230.972 20.4448 230.695 21.7053C230.398 23.1388 229.547 24.3636 228.701 25.5279C228.319 26.0195 227.943 26.6099 227.292 26.7554C223.777 27.6973 220.109 28.2548 216.467 27.9088C215.292 27.8182 214.125 27.6369 212.952 27.4996C211.939 27.3733 210.906 27.4035 209.904 27.1728C209.533 27.0987 209.16 26.9888 208.775 26.9971C208.201 27.0712 207.677 27.3623 207.106 27.4529C206.658 27.2827 206.312 26.9339 205.944 26.6373C205.277 26.0497 204.566 25.5087 203.906 24.9155C203.094 24.1851 202.632 23.1745 202.023 22.2902C200.155 19.5167 198.068 16.8914 195.797 14.4308C195.459 14.0711 195.116 13.7004 194.679 13.4505C193.74 13.9036 193.013 14.6807 192.257 15.381C191.67 16.0044 190.997 16.5948 190.629 17.3857C190.923 17.8223 191.318 18.1793 191.694 18.539C194.866 21.4637 198.45 23.8995 202.135 26.1211C203.234 26.8131 204.2 27.6891 205.214 28.491C205.856 28.9523 206.109 29.7267 206.526 30.3666C207.001 31.1272 207.677 31.7259 208.33 32.3273C208.665 32.6184 208.992 32.9424 209.407 33.1209C209.923 33.2143 210.445 33.0907 210.958 33.1456C211.241 33.2582 211.467 33.4642 211.697 33.6482C213.254 34.9773 214.861 36.246 216.415 37.5751C216.956 38.0145 216.583 38.8658 217.074 39.3436C217.901 40.1702 218.845 40.8979 219.878 41.4499C220.446 41.8014 221.147 41.6751 221.759 41.8948C220.114 42.3424 218.384 42.4797 216.794 43.1168C215.426 43.6907 214.152 44.6684 213.54 46.0524C212.933 47.3376 212.776 48.7711 212.285 50.092C211.758 50.2512 211.2 50.221 210.654 50.232C208.273 50.221 205.892 50.3226 203.508 50.3226C193.243 50.394 182.978 50.3666 172.711 50.3473C168.767 50.3528 164.824 50.2348 160.88 50.232C156.187 50.1826 151.497 50.0755 146.804 49.9821C144.362 49.9821 141.927 49.8558 139.485 49.7954C127.6 49.4027 115.685 48.6255 103.997 46.3325C95.2287 44.6601 86.5839 42.4193 77.9199 40.2911C73.787 39.242 69.5717 38.3413 65.2905 38.3193C64.7221 38.3495 64.0575 38.2727 63.6017 38.6873C63.4534 39.5963 63.7911 40.497 64.1207 41.3318C64.9033 43.1992 65.9935 44.9155 67.1194 46.5934C70.5658 51.6435 74.3472 56.4657 78.3593 61.0847C79.0349 61.881 79.8203 62.5758 80.4601 63.4024C79.2243 63.6688 77.9282 63.7072 76.7501 64.1988C76.7638 64.2702 76.794 64.4102 76.8078 64.4789C78.3621 64.7837 79.9933 64.4185 81.5091 64.9402C80.6798 65.5334 79.6967 65.8382 78.7493 66.187C77.6481 66.5906 76.5222 66.9367 75.4292 67.365C74.9047 67.5902 74.2594 67.8401 74.1221 68.469C75.0914 68.7903 76.1295 68.7052 77.1291 68.6804C78.3978 68.6475 79.6637 68.5294 80.9297 68.5898C79.8834 69.0924 78.7053 69.2406 77.6783 69.8009C76.8297 70.2759 75.767 70.4929 75.1601 71.3112C75.9647 71.649 76.8517 71.5694 77.703 71.5886C79.3259 71.616 80.9517 71.6243 82.5774 71.7067C83.533 71.7506 84.4941 71.7698 85.4278 71.9895C81.034 72.1405 76.6402 72.3355 72.2465 72.5195C70.4917 72.6321 68.7094 72.6431 66.9931 73.055C67.0288 73.1072 67.1057 73.2143 67.1442 73.2692C67.9515 73.4779 68.8001 73.4147 69.6212 73.4614C71.6396 73.5411 73.6689 73.5109 75.6626 73.8569C74.6218 74.1699 73.5289 74.1892 72.4634 74.3622C70.261 74.7109 68.0943 75.2629 65.9771 75.9577C65.2768 76.213 64.4914 76.4767 64.0795 77.1495C64.3733 77.825 65.1724 77.9733 65.8123 78.1243C67.6934 78.4539 69.5992 78.6049 71.5023 78.7093C72.7023 78.7917 73.9079 78.7093 75.0942 78.918C72.0048 79.3985 68.8522 79.7803 65.9414 80.9968C65.0818 81.3758 64.1646 81.6723 63.4094 82.249C63.8323 83.0646 64.8923 83.3118 65.3455 84.1274C65.3235 84.6711 64.7688 84.9622 64.3623 85.2258C63.4149 85.8217 62.2176 85.8492 61.3059 86.5137C62.3192 86.662 63.3408 86.5989 64.3568 86.6016C65.7272 86.6016 67.0975 86.5851 68.465 86.6099C69.3108 86.6208 70.1621 86.6785 70.9668 86.9476C70.4203 87.2909 69.7969 87.4639 69.1681 87.5957C68.0394 87.8319 66.9135 88.0873 65.7876 88.3482C64.8978 88.5569 63.9779 88.7271 63.1815 89.2049C63.5962 89.4329 64.0658 89.5235 64.5299 89.5317C66.1006 89.5894 67.6714 89.485 69.2394 89.5482C73.809 89.6004 78.3785 89.6059 82.9481 89.5921C90.4285 89.4713 97.9035 88.9248 105.312 87.8676C109.904 87.1673 114.564 87.2662 119.191 87.0932C120.82 87.03 122.451 87.0328 124.077 87.019C126.768 87.0245 129.459 86.835 132.15 86.8515C134.655 86.7938 137.159 86.7884 139.664 86.6895C145.359 86.5906 151.057 86.4726 156.753 86.2995C157.708 86.2941 158.667 86.2913 159.598 86.0744C152.774 85.6899 145.93 85.6185 139.098 85.4043C135.404 85.2835 131.705 85.2807 128.012 85.1791C124.198 85.0638 120.378 85.1242 116.563 85.0665C111.368 84.9951 106.175 84.9045 100.979 84.899C94.9651 84.8057 88.9511 84.6958 82.9398 84.5997C78.1177 84.4459 73.2927 84.4926 68.476 84.24C67.6302 84.1905 66.7542 84.2482 65.9469 83.9351C66.9464 83.6111 68.0037 83.6248 69.039 83.5479C71.667 83.3475 74.306 83.3722 76.9396 83.3173C79.0101 83.3118 81.0697 83.1031 83.1321 82.9328C87.3748 82.5868 91.6231 82.3094 95.8658 81.9579C99.2518 81.6696 102.649 81.5845 106.046 81.5048C111.736 81.3044 117.431 81.1313 123.124 80.9666C126.924 80.8595 130.728 80.7744 134.517 80.4476C135.22 80.3844 135.929 80.3157 136.594 80.0686C137.217 79.8187 137.854 79.5825 138.532 79.5551C143.536 79.2695 148.55 79.2969 153.559 79.1981C159.817 79.047 166.076 79.1486 172.337 79.0058C177.719 78.9235 183.105 78.9894 188.487 78.8768C191.491 78.8658 194.495 78.7944 197.5 78.8136C200.444 78.7971 203.385 78.8328 206.326 78.7587C211.208 78.7257 216.091 78.745 220.974 78.7395C225.175 78.7395 229.374 78.7038 233.576 78.7614C232.463 79.0223 231.31 78.929 230.179 78.9564C224.728 79.0663 219.276 79.1981 213.825 79.2805C211.387 79.3271 208.948 79.4864 206.51 79.4535C205.746 79.4452 204.975 79.4672 204.228 79.6594C205.862 79.7912 207.501 79.8242 209.135 79.945C212.524 80.1949 215.921 80.2663 219.315 80.4201C218.628 80.5547 217.928 80.6206 217.228 80.6288C209.772 80.6041 202.325 81.0133 194.872 81.0572C183.604 81.3098 172.332 81.4691 161.07 82.0183C154.251 82.2875 147.427 82.5209 140.614 82.9328C139.719 82.9767 138.799 82.9603 137.931 83.2294C138.944 83.32 139.96 83.2816 140.976 83.2953C148.05 83.3502 155.122 83.4298 162.198 83.4298C165.642 83.4793 169.088 83.5342 172.535 83.6138C179.856 83.6633 187.174 83.6331 194.495 83.7045C197.305 83.7649 200.114 83.7649 202.921 83.7923C204.123 83.7896 205.299 84.0615 206.491 84.1521C207.051 84.196 207.611 84.2757 208.135 84.4761C207.721 84.9512 207.075 85.094 206.603 85.4949C206.578 85.6048 206.532 85.819 206.507 85.9288C207.339 85.8492 208.127 85.5691 208.937 85.3988C209.725 85.2313 210.516 85.094 211.313 84.9622C212.266 84.8029 213.26 84.8194 214.166 84.4404C213.488 84.0834 212.708 84.1383 211.966 84.1191C210.983 84.0972 209.981 84.1329 209.022 83.8775C209.481 83.6962 209.964 83.5836 210.456 83.5781C211.821 83.5369 213.186 83.5122 214.545 83.5974C218.898 83.9049 223.247 84.1933 227.592 84.5832C228.531 84.6683 229.476 84.7343 230.396 84.9375C229.783 85.1544 229.138 85.2286 228.492 85.2752C224.796 85.5553 221.094 85.7943 217.395 86.0194C216.237 86.1101 215.047 86.0222 213.922 86.3655C214.449 86.7938 215.152 86.7856 215.794 86.8295C221.336 87.1234 226.886 86.857 232.428 87.1179C234.386 87.2305 236.36 87.0822 238.302 87.3843C237.055 87.5408 235.794 87.5161 234.542 87.5628C226.955 87.7879 219.362 87.7083 211.774 87.722C208.446 87.744 205.123 87.5792 201.795 87.5737C200.367 87.5765 198.925 87.5875 197.516 87.8676C196.692 87.9966 196.074 88.6502 195.256 88.793C194.52 88.9303 193.732 88.9276 193.067 89.3203C193.707 89.5729 194.399 89.6471 195.083 89.6608C196.577 89.6937 198.074 89.702 199.57 89.6855C199.971 89.6635 200.383 89.6745 200.765 89.5372C200.941 89.3368 200.996 89.0567 201.185 88.8672C201.869 88.598 202.616 88.5569 203.341 88.469C204.961 88.3344 206.587 88.2548 208.212 88.2768C207.647 88.7601 206.946 89.0759 206.438 89.6251C206.414 89.724 206.364 89.9162 206.339 90.015C206.751 90.0919 207.172 90.1167 207.575 90.2128C208.089 90.405 208.396 90.9844 208.97 91.0393C210.286 91.1986 211.615 91.2151 212.933 91.3552C211.475 91.7726 209.734 91.5117 208.55 92.6348C210.623 92.8161 212.708 92.849 214.787 92.9149C215.295 92.9369 215.808 92.9671 216.286 93.1484C216.421 93.6784 215.915 94.0024 215.525 94.2358C214.152 95.0322 212.529 95.0597 211.011 95.3508C210.563 95.4551 210.03 95.5595 209.791 96.0043C209.245 97.0039 209.132 98.16 208.836 99.242C208.083 99.4617 207.287 99.3546 206.513 99.3683C203.008 99.3546 199.504 99.3656 195.998 99.3656C193.938 99.3573 191.881 99.5029 189.824 99.5688C188.624 99.621 187.421 99.6924 186.23 99.8407C185.82 99.8846 185.422 100.003 185.071 100.222C185.702 100.549 186.419 100.648 187.119 100.7C188.951 100.821 190.783 100.931 192.614 100.928C197.813 100.953 203.008 100.925 208.204 100.928C211.403 100.95 214.592 100.621 217.785 100.5C218.573 100.472 219.37 100.456 220.141 100.626C219.617 100.947 219.027 101.148 218.428 101.28C216.179 101.782 213.894 102.183 211.585 102.183C209.52 102.158 207.427 102.205 205.409 102.664C205.969 102.966 206.614 103.12 207.114 103.531C205.604 103.737 204.077 103.523 202.564 103.639C201.677 103.704 201.026 104.473 200.133 104.534C197.931 104.677 195.577 104.07 193.504 105.078C192.9 105.382 192.098 105.945 192.31 106.731C192.584 107.241 193.205 107.414 193.71 107.615C194.866 107.975 196.031 108.312 197.203 108.62C198.59 108.952 200.029 108.87 201.44 108.829C202.437 108.763 203.486 108.738 204.387 108.258C204.39 108.189 204.398 108.057 204.401 107.988C203.3 107.296 201.844 107.48 200.812 106.646C201.732 106.305 202.72 106.338 203.681 106.278C205.502 106.173 207.325 106.121 209.146 106.033C212.84 105.926 216.539 106.003 220.224 106.3C221.3 106.396 222.396 106.387 223.448 106.668C222.673 107.156 221.756 107.302 220.872 107.464C218.659 107.862 216.396 107.813 214.163 108.065C211.966 108.359 209.712 108.494 207.586 109.161C207.553 109.224 207.487 109.35 207.454 109.416C208.638 109.625 209.824 109.334 211.008 109.293C212.925 109.205 214.844 109.23 216.761 109.166C221.103 109.037 225.472 109.002 229.778 109.636C230.632 109.801 231.65 109.955 232.142 110.765C231.862 111.476 231.041 111.682 230.39 111.913C228.248 112.514 226.013 112.772 223.791 112.753C217.283 112.775 210.772 112.753 204.261 112.684C200.691 112.701 197.118 112.665 193.548 112.786C193.062 112.819 192.551 112.838 192.098 113.052C191.788 113.203 191.527 113.552 191.634 113.915C192.098 114.45 192.765 114.752 193.4 115.04C194.449 115.51 195.627 115.386 196.742 115.378C200.405 115.31 204.035 114.821 207.666 114.381C212.395 113.816 217.162 113.994 221.91 114.088C223.418 114.093 224.92 114.175 226.422 114.184C227.232 114.195 228.05 114.184 228.847 114.351C228.6 114.813 228.218 115.191 228.012 115.678C227.987 116.282 228.13 116.894 228.363 117.452C228.847 118.319 230.143 118.289 230.579 119.193C229.368 119.923 227.655 119.437 226.628 120.56C226.718 120.796 226.861 121.027 227.1 121.145C228.174 121.716 229.476 121.642 230.544 122.23C230.805 122.4 231.153 122.702 230.997 123.048C230.632 123.438 230.074 123.589 229.712 123.987C229.632 124.3 229.599 124.624 229.517 124.94C229.119 125.261 228.352 125.294 228.407 125.956C229.119 126.165 229.887 126.159 230.547 126.533H237.566C237.102 126.302 236.561 126.094 236.3 125.613C236.758 124.959 237.56 124.721 238.285 124.504C241.045 123.748 243.904 123.457 246.721 122.988C247.218 122.889 247.735 122.815 248.185 122.57C248.49 122.298 248.646 121.903 248.902 121.593C249.692 121.184 250.755 121.247 251.354 120.494C251.335 120.395 251.299 120.198 251.28 120.096C250.448 119.876 249.58 119.832 248.748 119.615C245.521 118.888 242.171 118.921 238.955 118.13C238.357 117.979 237.75 117.754 237.307 117.306C237.582 116.622 238.367 116.424 238.996 116.208C241.366 115.527 243.838 115.307 246.246 114.813C247.616 114.524 249.022 114.247 250.261 113.563C250.799 113.253 251.368 112.833 251.51 112.187C251.642 111.654 251.37 111.138 251.071 110.718C250.494 109.924 249.882 109.095 248.962 108.68C247.822 108.057 246.488 107.851 245.395 107.134C245.406 107.027 245.431 106.816 245.441 106.709C245.895 106.398 246.438 106.269 246.957 106.129C248.838 105.651 250.794 105.3 252.521 104.372C252.919 104.141 253.353 103.869 253.512 103.413C253.554 102.502 252.299 102.147 252.345 101.233C252.812 101.038 253.328 101.03 253.825 101.019C255.646 101.019 257.47 100.953 259.29 100.947C263.418 100.84 267.548 100.903 271.675 100.78C278.815 100.711 285.955 100.728 293.092 100.717C293.543 100.703 293.99 100.632 294.43 100.533C284.722 100.036 275.001 99.923 265.29 99.6265C260.812 99.5606 256.338 99.3628 251.859 99.3656C251.966 99.0965 252.093 98.8328 252.169 98.5527C252.035 98.1436 251.634 97.9184 251.266 97.7454C249.717 97.0671 248.048 96.7485 246.4 96.4135C246.01 96.2762 245.387 96.2432 245.315 95.738C245.494 95.2409 245.947 94.9086 246.408 94.7027C247.399 94.2523 248.528 94.299 249.519 93.8679C249.789 93.7196 250.212 93.5218 250.082 93.1429C249.703 92.6403 249.141 92.3081 248.773 91.7945C248.888 91.5419 249.061 91.2838 249.352 91.2371C250.352 90.9734 251.414 91.0641 252.395 91.3634C253.01 91.5748 253.581 91.0915 254.196 91.1053C257.082 91.086 259.968 91.0036 262.855 90.9789C265.03 90.957 267.202 90.8224 269.374 90.784C269.885 90.7785 270.39 90.6878 270.868 90.5176C269.978 90.2677 269.044 90.2704 268.13 90.221C263.429 89.9739 258.722 89.7624 254.015 89.7734C253.386 89.7432 252.754 90.0041 252.134 89.8997C251.25 89.4164 250.404 88.8507 249.533 88.3372C249.728 88.0571 250.003 87.8291 250.327 87.7193C251.618 87.2387 253.029 87.3733 254.355 87.0575C254.951 86.9696 255.105 86.2941 255.55 85.9892C255.94 85.7915 256.374 85.6954 256.766 85.5059C256.879 85.2945 256.821 85.1654 256.588 85.1187C255.402 84.8798 254.147 85.083 252.996 84.6436C253.037 84.2043 253.529 84.196 253.858 84.1164C255.778 83.8528 257.719 83.8061 259.655 83.7704C265.598 83.5507 271.546 83.7182 277.491 83.5726C279.872 83.5562 282.253 83.4793 284.634 83.4903C290.39 83.3804 296.151 83.4628 301.91 83.3063C305.425 83.2706 308.946 83.2623 312.458 83.0893C312.15 82.9712 311.821 83.0426 311.505 82.9795C308.558 82.8971 305.609 82.8312 302.662 82.8065C296.344 82.628 290.019 82.7653 283.7 82.6362C277.502 82.5758 271.302 82.5401 265.104 82.5209C262.061 82.5099 259.018 82.4962 255.981 82.3122C254.94 82.2188 253.85 82.1447 252.905 81.6586C252.669 81.557 252.554 81.3208 252.491 81.0874C253.372 80.9583 254.265 81.0078 255.152 81.005C268.045 81.0188 280.941 81.0188 293.836 81.0682C300.411 81.1313 306.974 81.5131 313.543 81.7739C317.546 81.9689 321.558 82.065 325.565 81.8755C326.397 81.8371 327.243 81.8261 328.059 81.6229C327.122 81.0352 325.958 81.3373 324.928 81.0737C326.23 80.4228 327.825 80.8485 329.077 80.0768C329.088 79.967 329.108 79.7473 329.116 79.6402C328.665 79.4068 328.171 79.2832 327.68 79.1734C325.571 78.7065 323.423 78.4182 321.267 78.2891C319.749 78.1985 318.23 78.1326 316.714 77.9898C317.714 77.8223 318.73 77.7948 319.738 77.7756C321.918 77.7042 324.093 77.5394 326.252 77.2538C327.037 77.1193 327.886 77.0286 328.539 76.5288C328.495 75.8341 327.669 75.6885 327.243 75.2766C326.765 74.7878 326.334 74.2578 325.776 73.8569C326.046 73.7443 326.337 73.6976 326.581 73.5301C325.285 72.6431 323.665 72.9534 322.196 72.8463C319.694 72.6733 317.187 72.5937 314.679 72.6156C309.734 72.5992 304.788 72.6129 299.845 72.5195C298.889 72.5195 297.928 72.5278 296.983 72.3547C299.936 72.1817 302.899 72.146 305.853 72.0444C310.989 71.9978 316.118 71.8659 321.251 71.7369C322.448 71.671 323.662 71.7204 324.846 71.4952C324.585 70.9817 323.992 70.8801 323.473 70.8169C321.287 70.5615 319.079 70.6769 316.887 70.4764C318.461 70.0947 320.092 70.2814 321.685 70.0727C322.553 69.9601 323.198 69.2956 324.003 69.0155C324.832 68.7244 325.727 68.7271 326.562 68.4662C326.282 68.1422 325.774 68.2987 325.392 68.2603C322.138 68.4415 318.878 68.3564 315.616 68.4003C312.601 68.3811 309.588 68.5431 306.57 68.436C307.929 68.1669 309.314 68.1614 310.689 68.0461C313.208 67.8511 315.734 67.7248 318.241 67.3843C318.757 67.3129 319.287 67.2168 319.752 66.9669C319.65 66.4698 319.2 66.1842 318.845 65.8712C319.109 65.7119 319.373 65.5581 319.647 65.4153C318.785 65.0061 317.807 65.0528 316.896 64.8414C317.813 64.4597 318.823 64.5008 319.798 64.4597C321.731 64.4212 323.665 64.3718 325.595 64.2592C326.315 64.218 327.04 64.0999 327.691 63.7759C327.279 63.5479 326.826 63.4216 326.359 63.3722C323.851 63.0756 321.325 63.0399 318.807 62.941C317.909 62.9218 317.115 62.3863 316.555 61.7218C316.797 61.2412 317.239 60.9172 317.612 60.5464C318.266 59.9423 318.829 59.2503 319.362 58.5335C320.606 56.9051 321.663 55.1366 322.577 53.3049C323.92 50.6934 324.994 47.95 325.867 45.1517C326.087 44.4679 326.202 43.7594 326.452 43.0893C326.96 42.9136 327.509 42.9246 328.023 42.7681C328.561 42.4907 328.308 41.6312 327.787 41.5076C327.183 41.3758 326.559 41.4087 325.947 41.406C324.53 41.4307 323.096 41.4032 321.704 41.7108C319.834 42.1145 317.939 42.3561 316.05 42.6445C309.261 43.6139 302.47 44.5558 295.66 45.3412C281.078 47.0795 266.438 48.2466 251.791 49.2434C250.978 49.2846 250.168 49.356 249.352 49.356C249.687 48.7079 250.118 48.1175 250.442 47.4667C250.997 46.371 251.315 45.1407 251.258 43.9104C251.233 43.1553 251.085 42.3973 251.208 41.6449C251.321 40.9639 251.233 40.2746 251.236 39.5908C251.239 38.9784 251.521 38.4237 251.736 37.869C252.318 36.4904 252.636 35.0212 252.864 33.5493C253.013 32.6129 253.109 31.6518 252.952 30.7098C252.516 27.9665 251.661 25.3165 250.857 22.6637C250.376 21.0819 250.129 19.3684 249.141 17.9953C248.116 16.5481 247.103 14.9993 245.538 14.0821C244.78 13.5878 243.846 13.4642 243.096 12.9534C242.715 12.7063 242.36 12.4069 241.932 12.2394C241.267 12.0252 240.54 12.2422 239.875 12.039C239.276 11.4376 239.351 10.4792 239.54 9.71575C239.85 8.56513 240.01 7.36507 239.9 6.176C239.774 5.44828 239.417 4.78921 239.161 4.10268C238.933 3.3832 238.184 2.89164 238.244 2.08428C237.87 1.91677 237.453 1.86185 237.077 1.69433C236.753 1.43071 236.517 1.0792 236.19 0.823813C235.764 0.615108 235.281 0.573916 234.858 0.362464ZM233.49 31.1163C233.614 31.8687 233.641 32.6349 233.735 33.3901C233.847 34.3512 234.007 35.3288 233.814 36.29C233.685 36.9188 233.603 37.5559 233.438 38.1765C232.999 38.3935 232.491 38.4264 232.051 38.6489C231.681 39.0443 231.472 39.5633 231.077 39.9395C230.742 40.0906 230.371 40.1263 230.011 40.1977C228.38 40.4531 226.762 40.8046 225.145 41.1451C224.89 41.178 224.585 41.2851 224.365 41.0819C223.824 40.6947 223.291 40.2801 222.822 39.8105C222.555 39.6018 222.816 39.286 222.846 39.0333C223.214 38.0694 222.528 37.0451 222.901 36.0867C223.094 35.6254 223.322 35.1503 223.714 34.829C224.093 34.678 224.508 34.6725 224.903 34.6313C226.356 34.5324 227.825 34.3869 229.217 33.9365C230.217 33.6235 231.129 33.1017 232.082 32.6788C232.796 32.4152 232.952 31.5804 233.49 31.1163ZM216.767 31.5996C218.063 31.7506 219.362 31.9374 220.628 32.2504C220.144 32.7255 219.557 33.1456 219.326 33.8157C218.969 34.6066 218.815 35.6364 217.986 36.0867C217.538 35.8368 217.154 35.4881 216.761 35.1586C215.468 34.0766 214.133 33.0385 212.897 31.8879C214.067 31.1959 215.49 31.5666 216.767 31.5996ZM199.112 75.1695C203.53 75.3123 207.946 75.5293 212.351 75.8643C213.606 76.0208 214.902 75.9274 216.121 76.3119C213.424 76.5096 210.717 76.4986 208.015 76.6167C198.313 76.7842 188.611 76.9627 178.909 77.1385C175.959 77.2428 173.002 77.1907 170.05 77.2648C163.668 77.4488 157.28 77.3664 150.895 77.4488C142.896 77.512 134.894 77.49 126.891 77.4982C115.687 77.5257 104.48 77.5284 93.2735 77.4625C92.3975 77.4296 91.505 77.5669 90.6345 77.4021C92.208 77.4378 93.7705 77.2016 95.3413 77.2291C100.474 77.2181 105.606 77.0122 110.739 77.0012C115.061 76.8694 119.384 76.8913 123.706 76.8611C130.401 76.6607 137.102 76.7238 143.797 76.6662C144.854 76.5893 145.911 76.4794 146.968 76.5151C146.62 76.4163 146.232 76.452 145.864 76.4437C144.173 76.5261 142.478 76.3778 140.787 76.3449C135.333 76.2844 129.885 76.1499 124.434 76.1005C124.626 76.0291 124.815 75.9357 125.019 75.9274C131.148 75.8341 137.28 75.6995 143.409 75.5842C146.853 75.4963 150.299 75.5457 153.743 75.4853C160.062 75.348 166.383 75.3068 172.7 75.175C177.774 75.1338 182.849 75.164 187.921 75.0542C191.653 74.991 195.382 75.0514 199.112 75.1695ZM257.527 75.5293C261.243 75.5979 264.958 75.5595 268.674 75.6776C279.07 75.8396 289.47 76.0208 299.867 76.3037C299.161 76.6497 298.351 76.4739 297.593 76.5179C285.95 76.7815 274.306 76.9875 262.662 77.1879C259.658 77.2291 256.654 77.2071 253.65 77.3087C252.277 77.3005 250.895 77.4433 249.528 77.2868C249.558 76.7733 249.816 76.2844 250.244 75.9988C250.967 75.5155 251.867 75.4798 252.705 75.4743C254.314 75.4716 255.923 75.4771 257.527 75.5293ZM230.489 92.9891C231.115 93.2198 231.645 93.6729 232.076 94.1727C230.579 94.2029 229.072 94.2139 227.586 93.9859C226.081 93.7635 224.565 93.6399 223.052 93.5054C222.237 93.4504 221.416 93.3708 220.6 93.4779C220.353 93.4889 220.139 93.6289 220.026 93.8514C220.971 94.3594 222.069 94.4033 223.113 94.5269C224.766 94.678 226.4 94.969 228.034 95.2492C229.437 95.4936 230.788 95.9494 232.128 96.4163C232.537 96.5673 232.955 96.7073 233.326 96.938C233.595 97.6053 232.823 98.042 232.301 98.2342C230.417 98.896 228.394 98.9674 226.422 99.1239C223.755 99.231 221.081 99.2255 218.417 99.0306C216.621 98.9152 214.803 98.8603 213.057 98.3935C212.419 98.204 211.749 98.009 211.244 97.5559C211.244 97.4433 211.244 97.2236 211.244 97.111C211.65 96.5947 212.345 96.4849 212.944 96.3421C214.608 96.029 216.302 95.9137 217.953 95.532C218.708 95.3865 219.449 95.1256 220.221 95.1256C221.155 95.2711 222.064 95.911 223.028 95.5485C222.737 95.1475 222.344 94.7933 221.85 94.6752C220.927 94.4583 219.925 94.6807 219.035 94.2908C218.705 94.1534 218.447 93.8624 218.37 93.5109C218.502 93.3131 218.683 93.1374 218.928 93.1017C219.658 92.9342 220.419 92.9699 221.16 92.9342C223.538 92.8326 225.919 92.8545 228.297 92.8271C229.031 92.8326 229.778 92.7969 230.489 92.9891ZM232.117 101.683C232.584 102.282 233.273 102.576 233.93 102.911C233.924 102.99 233.913 103.147 233.911 103.227C232.48 103.63 230.947 103.136 229.536 103.625C229.783 103.883 230.047 104.13 230.308 104.375C229.066 104.55 227.825 104.712 226.587 104.913C224.92 105.182 223.225 105.207 221.539 105.198C220.916 105.182 220.268 105.157 219.688 104.905L219.65 104.742C220.825 104.594 222.028 104.613 223.179 104.306C223.17 104.243 223.151 104.111 223.143 104.048C222.47 103.729 221.718 103.619 220.976 103.592C218.469 103.523 215.962 103.644 213.457 103.696C212.507 103.715 211.549 103.721 210.615 103.537C211.392 103.24 212.235 103.268 213.048 103.174C215.201 102.941 217.365 102.85 219.51 102.573C221.814 102.293 224.118 102.024 226.427 101.801C228.05 101.648 229.673 101.425 231.304 101.494C231.574 101.538 231.909 101.475 232.117 101.683Z" fill="white"/>
</g>
<path d="M37.6658 82.5449C35.4085 82.273 33.9091 81.5041 33.1621 80.2381C32.4207 78.9694 32.0527 77.4288 32.0527 75.6137C32.0527 74.8942 32.0774 74.345 32.1296 73.955C27.6699 79.3511 22.6308 82.0506 17.015 82.0506C13.8734 82.0506 11.0065 81.2212 8.41411 79.5681C5.82727 77.9204 3.77866 75.5285 2.2628 72.3952C0.752437 69.2536 0 65.5629 0 61.3229C0 54.3807 1.74653 47.3286 5.2396 40.1667C8.73815 33.0049 13.1979 27.1007 18.6187 22.4488C24.045 17.7914 29.4604 15.4626 34.8647 15.4626C38.2178 15.4626 40.692 16.3853 42.2903 18.2307C43.894 20.0761 44.6959 22.4048 44.6959 25.2169C44.6959 27.2023 44.3361 29.1575 43.6194 31.0826C42.8999 33.0104 41.9497 34.5949 40.7634 35.8389C39.5826 37.0774 38.3056 37.6952 36.9298 37.6952C36.2103 37.6952 35.5732 37.492 35.0185 37.0801C34.4693 36.6627 33.9475 35.9569 33.4587 34.9601C34.2771 34.4109 35.2108 33.4223 36.2598 31.9943C37.306 30.5608 38.1985 29.0175 38.94 27.3698C39.6869 25.7167 40.0604 24.2557 40.0604 22.987C40.0604 21.8309 39.6869 20.8945 38.94 20.175C38.1985 19.4583 37.0864 19.0985 35.6007 19.0985C31.5804 19.0985 27.4063 21.4547 23.0784 26.1615C18.756 30.8711 15.1503 36.627 12.2587 43.4291C9.37251 50.234 7.9308 56.4979 7.9308 62.2236C7.9308 65.475 8.4251 68.298 9.4137 70.6926C10.4023 73.0872 11.7342 74.9161 13.4121 76.1849C15.0954 77.4508 16.96 78.0852 19.0032 78.0852C21.8646 78.0852 24.4954 76.8879 26.89 74.4932C29.2846 72.0986 31.2234 69.0861 32.7118 65.453C34.1974 61.8144 35.1064 58.1785 35.4359 54.5454C32.7392 53.9962 29.7927 53.7216 26.5934 53.7216C25.6048 53.7216 23.7869 53.7765 21.1451 53.8864C21.6422 51.9531 22.4248 50.5333 23.4958 49.6244C24.5723 48.7182 25.992 48.2623 27.7578 48.2623C29.0759 48.2623 30.4215 48.4435 31.8001 48.8005C33.1759 49.1603 34.9114 49.6985 37.0067 50.4153C39.319 51.294 41.3044 51.8982 42.9603 52.2277C40.5355 59.7191 39.0059 64.7225 38.3688 67.2325C37.7372 69.737 37.4241 72.2524 37.4241 74.7788L37.501 78.6673C37.6109 80.2107 37.6658 81.5041 37.6658 82.5449Z" fill="white"/>
<path d="M50.3055 78.7445C48.3777 78.7445 46.7685 78.1101 45.4723 76.8441C44.1762 75.5837 43.5281 73.7987 43.5281 71.4837C43.5281 68.2845 44.7007 64.7035 47.0431 60.7409C49.3856 56.7728 52.3733 53.4115 56.0064 50.6571C59.6451 47.9055 63.2809 46.527 66.914 46.527C69.3361 46.527 71.3627 47.1503 72.9885 48.3943C74.6142 49.6328 75.427 51.2146 75.427 53.1396C75.427 55.6743 73.8562 56.9952 70.7147 57.105C72.6974 57.7147 73.6915 58.5413 73.6915 59.5875C73.6915 59.9692 73.4965 60.5487 73.1093 61.3231C72.7193 62.092 72.28 62.8911 71.7911 63.7177C70.9041 65.1457 70.2121 66.3979 69.7151 67.4744C69.2235 68.5509 68.9791 69.5559 68.9791 70.4841C68.9791 71.3135 69.1823 72.0165 69.5942 72.5931C70.0117 73.1726 70.6323 73.4609 71.4616 73.4609C72.9994 73.4609 74.9657 72.3899 77.3603 70.2425C79.7549 68.0978 82.0836 64.8766 84.3464 60.5761L85.9172 62.1469C83.8741 66.7165 81.3367 70.3935 78.3049 73.1753C75.2787 75.9571 72.225 77.3494 69.1439 77.3494C66.9387 77.3494 65.2444 76.6162 64.0581 75.1525C62.8772 73.6971 62.2896 72.0302 62.2896 70.1546C59.8071 73.1286 57.6816 75.3008 55.9186 76.6794C54.1611 78.0552 52.2882 78.7445 50.3055 78.7445ZM52.041 74.5374C53.9661 74.5374 56.2097 73.1479 58.7745 70.3633C61.3367 67.5815 64.2448 63.9593 67.4962 59.4996L69.1439 57.2698C69.3114 56.9924 69.5311 56.8524 69.803 56.8524L70.1325 56.9403C70.4098 56.0615 70.5499 55.0454 70.5499 53.8866C70.5499 51.0251 69.391 49.5916 67.0788 49.5916C64.654 49.5916 62.1193 50.8878 59.4775 53.4802C56.833 56.067 54.6142 59.1481 52.8209 62.7291C51.0332 66.3045 50.1407 69.3582 50.1407 71.8901C50.1407 72.8293 50.289 73.5049 50.5911 73.9223C50.8987 74.3342 51.382 74.5374 52.041 74.5374Z" fill="white"/>
<path d="M110.206 76.5146C108.111 76.5146 106.485 75.9901 105.329 74.9438C104.17 73.9058 103.594 72.5272 103.594 70.8136C103.594 70.1051 103.717 69.2813 103.967 68.3421C104.214 67.4057 104.475 66.4693 104.747 65.5301C105.516 62.9982 105.9 61.1253 105.9 59.917C105.9 58.8131 105.626 58.0002 105.077 57.4785C104.527 56.9512 103.838 56.6876 103.012 56.6876C100.095 56.6876 97.1485 58.522 94.169 62.1908C91.1949 65.8541 88.0012 70.4923 84.5905 76.1082C82.2261 76.1082 80.4356 75.309 79.2191 73.7135L79.9661 71.6485C83.2175 63.7698 84.8432 57.9288 84.8432 54.1282C85.2825 53.6394 85.9114 53.189 86.7325 52.7771C87.5591 52.3597 88.3609 52.151 89.1381 52.151C90.0745 52.151 90.7885 52.3707 91.2801 52.8101C91.7771 53.2495 92.027 53.8536 92.027 54.6225C92.027 56.1109 91.5574 58.5632 90.621 61.9821C93.1035 58.673 95.6766 55.9736 98.3431 53.8866C101.015 51.794 103.649 50.745 106.241 50.745C108.438 50.745 110.14 51.5029 111.349 53.0188C112.563 54.5346 113.172 56.3361 113.172 58.4231C113.172 59.6397 113.021 60.8013 112.722 61.9052C112.42 63.0037 111.967 64.2422 111.36 65.618C110.421 67.933 109.954 69.6658 109.954 70.8136C109.954 71.643 110.143 72.2499 110.525 72.6371C110.912 73.027 111.384 73.2192 111.942 73.2192C113.757 73.2192 115.723 71.967 117.841 69.4626C119.963 66.9526 121.877 63.9895 123.585 60.5761L124.991 61.7295C123.006 66.299 120.817 69.9074 118.423 72.5492C116.028 75.191 113.287 76.5146 110.206 76.5146Z" fill="white"/>
<path d="M125.566 98.0001C124.02 98.0001 122.699 97.5442 121.601 96.638C120.503 95.729 119.953 94.4219 119.953 92.7165C119.953 90.5636 120.763 88.6029 122.381 86.8398C124.007 85.0823 125.89 83.5802 128.038 82.3362C130.191 81.0977 133.028 79.656 136.551 78.0083C137.927 74.5372 139.028 71.0963 139.857 67.6829C135.398 73.3015 131.212 76.108 127.302 76.108C125.097 76.108 123.348 75.3391 122.051 73.8013C120.763 72.2579 120.118 70.2176 120.118 67.6829C120.118 63.9921 121.332 60.4963 123.754 57.1927C126.176 53.8837 129.175 51.2254 132.75 49.218C136.331 47.2051 139.747 46.1973 142.999 46.1973C144.704 46.1973 146.011 46.5021 146.92 47.109C147.826 47.7186 148.282 48.4601 148.282 49.3388C148.282 49.8881 148.118 50.3878 147.788 50.8327C147.459 51.2721 147.184 51.5192 146.964 51.5687C146.415 51.0195 145.86 50.635 145.306 50.4153C144.756 50.1956 144.07 50.0858 143.251 50.0858C140.549 50.0858 137.929 51.0936 135.398 53.1065C132.863 55.1139 130.809 57.5332 129.235 60.3672C127.667 63.2012 126.885 65.7496 126.885 68.0124C126.885 69.1109 127.118 69.9512 127.588 70.5279C128.054 71.1073 128.678 71.3957 129.455 71.3957C130.941 71.3957 132.772 70.4345 134.947 68.5067C137.122 66.5817 139.281 64.102 141.428 61.0703C142.035 57.9891 142.749 55.773 143.57 54.4246C144.397 53.0708 145.583 52.3925 147.129 52.3925C147.846 52.3925 148.645 52.5024 149.524 52.722C149.524 54.1583 148.914 57.0252 147.7 61.3229C146.492 65.6151 145.034 70.0748 143.328 74.702C146.08 73.5459 148.738 71.7444 151.303 69.2976C153.865 66.8453 155.697 64.0196 156.795 60.8176L158.278 62.3115C157.07 65.7826 154.909 68.9242 151.797 71.7362C148.683 74.5427 145.503 76.6847 142.252 78.1731C139.717 84.286 137.089 89.1191 134.365 92.6726C131.641 96.2233 128.708 98.0001 125.566 98.0001ZM125.237 94.1994C126.335 94.1994 127.766 93.1779 129.532 91.1348C131.295 89.0972 133.113 86.016 134.98 81.8858C131.405 83.6489 128.626 85.3157 126.643 86.8838C124.657 88.4573 123.666 90.1242 123.666 91.8817C123.666 92.5985 123.814 93.1614 124.116 93.5733C124.424 93.9907 124.798 94.1994 125.237 94.1994Z" fill="white"/>
<path d="M159.354 78.7445C157.426 78.7445 155.817 78.1101 154.52 76.8441C153.224 75.5837 152.576 73.7987 152.576 71.4837C152.576 68.2845 153.749 64.7035 156.091 60.7409C158.434 56.7728 161.421 53.4115 165.055 50.6571C168.693 47.9055 172.329 46.527 175.962 46.527C178.384 46.527 180.411 47.1503 182.037 48.3943C183.662 49.6328 184.475 51.2146 184.475 53.1396C184.475 55.6743 182.904 56.9952 179.763 57.105C181.745 57.7147 182.74 58.5413 182.74 59.5875C182.74 59.9692 182.545 60.5487 182.157 61.3231C181.767 62.092 181.328 62.8911 180.839 63.7177C179.952 65.1457 179.26 66.3979 178.763 67.4744C178.272 68.5509 178.027 69.5559 178.027 70.4841C178.027 71.3135 178.23 72.0165 178.642 72.5931C179.06 73.1726 179.68 73.4609 180.51 73.4609C182.048 73.4609 184.014 72.3899 186.408 70.2425C188.803 68.0978 191.132 64.8766 193.395 60.5761L194.965 62.1469C192.922 66.7165 190.385 70.3935 187.353 73.1753C184.327 75.9571 181.273 77.3494 178.192 77.3494C175.987 77.3494 174.292 76.6162 173.106 75.1525C171.925 73.6971 171.338 72.0302 171.338 70.1546C168.855 73.1286 166.73 75.3008 164.967 76.6794C163.209 78.0552 161.336 78.7445 159.354 78.7445ZM161.089 74.5374C163.014 74.5374 165.258 73.1479 167.823 70.3633C170.385 67.5815 173.293 63.9593 176.544 59.4996L178.192 57.2698C178.359 56.9924 178.579 56.8524 178.851 56.8524L179.181 56.9403C179.458 56.0615 179.598 55.0454 179.598 53.8866C179.598 51.0251 178.439 49.5916 176.127 49.5916C173.702 49.5916 171.167 50.8878 168.526 53.4802C165.881 56.067 163.662 59.1481 161.869 62.7291C160.081 66.3045 159.189 69.3582 159.189 71.8901C159.189 72.8293 159.337 73.5049 159.639 73.9223C159.947 74.3342 160.43 74.5374 161.089 74.5374Z" fill="white"/>
</svg>
