<svg width="329" height="109" viewBox="0 0 329 109" fill="none" xmlns="http://www.w3.org/2000/svg">
<mask id="mask0_237_46" style="mask-type:luminance" maskUnits="userSpaceOnUse" x="188" y="0" width="141" height="79">
<path d="M188.668 0H328.918V78.561H188.668V0Z" fill="white"/>
</mask>
<g mask="url(#mask0_237_46)">
<path d="M234.858 0.362464C234.542 0.260858 234.224 0.0548986 233.88 0.0933447C233.699 0.30205 233.523 0.518994 233.323 0.711222C233.029 0.823812 232.705 0.793605 232.395 0.810082C231.508 0.80459 230.612 0.925419 229.783 1.23573C229.352 1.41697 229.572 2.07055 229.138 2.27651C228.418 2.73511 228.031 3.50677 227.605 4.21252C227.781 4.22076 227.954 4.229 228.127 4.23724C227.894 4.52833 227.614 4.78372 227.416 5.10501C227.331 5.37413 227.342 5.65973 227.35 5.93983C227.666 5.93709 227.979 5.90688 228.295 5.90688C228.278 6.67854 228.108 7.44471 228.149 8.21911C228.193 8.70792 228.586 9.08414 228.668 9.56197C228.635 10.2183 228.317 10.8307 228.341 11.4925C228.657 11.7698 229.091 11.9483 229.245 12.3712C229.61 13.1264 230.039 13.8514 230.363 14.6286C230.508 14.9004 230.61 15.2904 230.967 15.3453C231.56 15.4414 232.164 15.3233 232.76 15.3782C233.078 15.6501 233.287 16.0401 233.378 16.4465C232.903 16.9875 232.299 17.4131 231.909 18.0283C231.192 19.1294 230.972 20.4448 230.695 21.7053C230.398 23.1388 229.547 24.3636 228.701 25.5279C228.319 26.0195 227.943 26.6099 227.292 26.7554C223.777 27.6973 220.109 28.2548 216.467 27.9088C215.292 27.8182 214.125 27.6369 212.952 27.4996C211.939 27.3733 210.906 27.4035 209.904 27.1728C209.533 27.0987 209.16 26.9888 208.775 26.9971C208.201 27.0712 207.677 27.3623 207.106 27.4529C206.658 27.2827 206.312 26.9339 205.944 26.6373C205.277 26.0497 204.566 25.5087 203.906 24.9155C203.094 24.1851 202.632 23.1745 202.023 22.2902C200.155 19.5167 198.068 16.8914 195.797 14.4308C195.459 14.0711 195.116 13.7004 194.679 13.4505C193.74 13.9036 193.013 14.6807 192.257 15.381C191.67 16.0044 190.997 16.5948 190.629 17.3857C190.923 17.8223 191.318 18.1793 191.694 18.539C194.866 21.4637 198.45 23.8995 202.135 26.1211C203.234 26.8131 204.2 27.6891 205.214 28.491C205.856 28.9523 206.109 29.7267 206.526 30.3666C207.001 31.1272 207.677 31.7259 208.33 32.3273C208.665 32.6184 208.992 32.9424 209.407 33.1209C209.923 33.2143 210.445 33.0907 210.958 33.1456C211.241 33.2582 211.467 33.4642 211.697 33.6482C213.254 34.9773 214.861 36.246 216.415 37.5751C216.956 38.0145 216.583 38.8658 217.074 39.3436C217.901 40.1702 218.845 40.8979 219.878 41.4499C220.446 41.8014 221.147 41.6751 221.759 41.8948C220.114 42.3424 218.384 42.4797 216.794 43.1168C215.426 43.6907 214.152 44.6684 213.54 46.0524C212.933 47.3376 212.776 48.7711 212.285 50.092C211.758 50.2512 211.2 50.221 210.654 50.232C208.273 50.221 205.892 50.3226 203.508 50.3226C193.243 50.394 182.978 50.3666 172.711 50.3473C168.767 50.3528 164.824 50.2348 160.88 50.232C156.187 50.1826 151.497 50.0755 146.804 49.9821C144.362 49.9821 141.927 49.8558 139.485 49.7954C127.6 49.4027 115.685 48.6255 103.997 46.3325C95.2287 44.6601 86.5839 42.4193 77.9199 40.2911C73.787 39.242 69.5717 38.3413 65.2905 38.3193C64.7221 38.3495 64.0575 38.2727 63.6017 38.6873C63.4534 39.5963 63.7911 40.497 64.1207 41.3318C64.9033 43.1992 65.9935 44.9155 67.1194 46.5934C70.5658 51.6435 74.3472 56.4657 78.3593 61.0847C79.0349 61.881 79.8203 62.5758 80.4601 63.4024C79.2243 63.6688 77.9282 63.7072 76.7501 64.1988C76.7638 64.2702 76.794 64.4102 76.8078 64.4789C78.3621 64.7837 79.9933 64.4185 81.5091 64.9402C80.6798 65.5334 79.6967 65.8382 78.7493 66.187C77.6481 66.5906 76.5222 66.9367 75.4292 67.365C74.9047 67.5902 74.2594 67.8401 74.1221 68.469C75.0914 68.7903 76.1295 68.7052 77.1291 68.6804C78.3978 68.6475 79.6637 68.5294 80.9297 68.5898C79.8834 69.0924 78.7053 69.2406 77.6783 69.8009C76.8297 70.2759 75.767 70.4929 75.1601 71.3112C75.9647 71.649 76.8517 71.5694 77.703 71.5886C79.3259 71.616 80.9517 71.6243 82.5774 71.7067C83.533 71.7506 84.4941 71.7698 85.4278 71.9895C81.034 72.1405 76.6402 72.3355 72.2465 72.5195C70.4917 72.6321 68.7094 72.6431 66.9931 73.055C67.0288 73.1072 67.1057 73.2143 67.1442 73.2692C67.9515 73.4779 68.8001 73.4147 69.6212 73.4614C71.6396 73.5411 73.6689 73.5109 75.6626 73.8569C74.6218 74.1699 73.5289 74.1892 72.4634 74.3622C70.261 74.7109 68.0943 75.2629 65.9771 75.9577C65.2768 76.213 64.4914 76.4767 64.0795 77.1495C64.3733 77.825 65.1724 77.9733 65.8123 78.1243C67.6934 78.4539 69.5992 78.6049 71.5023 78.7093C72.7023 78.7917 73.9079 78.7093 75.0942 78.918C72.0048 79.3985 68.8522 79.7803 65.9414 80.9968C65.0818 81.3758 64.1646 81.6723 63.4094 82.249C63.8323 83.0646 64.8923 83.3118 65.3455 84.1274C65.3235 84.6711 64.7688 84.9622 64.3623 85.2258C63.4149 85.8217 62.2176 85.8492 61.3059 86.5137C62.3192 86.662 63.3408 86.5989 64.3568 86.6016C65.7272 86.6016 67.0975 86.5851 68.465 86.6099C69.3108 86.6208 70.1621 86.6785 70.9668 86.9476C70.4203 87.2909 69.7969 87.4639 69.1681 87.5957C68.0394 87.8319 66.9135 88.0873 65.7876 88.3482C64.8978 88.5569 63.9779 88.7271 63.1815 89.2049C63.5962 89.4329 64.0658 89.5235 64.5299 89.5317C66.1006 89.5894 67.6714 89.485 69.2394 89.5482C73.809 89.6004 78.3785 89.6059 82.9481 89.5921C90.4285 89.4713 97.9035 88.9248 105.312 87.8676C109.904 87.1673 114.564 87.2662 119.191 87.0932C120.82 87.03 122.451 87.0328 124.077 87.019C126.768 87.0245 129.459 86.835 132.15 86.8515C134.655 86.7938 137.159 86.7884 139.664 86.6895C145.359 86.5906 151.057 86.4726 156.753 86.2995C157.708 86.2941 158.667 86.2913 159.598 86.0744C152.774 85.6899 145.93 85.6185 139.098 85.4043C135.404 85.2835 131.705 85.2807 128.012 85.1791C124.198 85.0638 120.378 85.1242 116.563 85.0665C111.368 84.9951 106.175 84.9045 100.979 84.899C94.9651 84.8057 88.9511 84.6958 82.9398 84.5997C78.1177 84.4459 73.2927 84.4926 68.476 84.24C67.6302 84.1905 66.7542 84.2482 65.9469 83.9351C66.9464 83.6111 68.0037 83.6248 69.039 83.5479C71.667 83.3475 74.306 83.3722 76.9396 83.3173C79.0101 83.3118 81.0697 83.1031 83.1321 82.9328C87.3748 82.5868 91.6231 82.3094 95.8658 81.9579C99.2518 81.6696 102.649 81.5845 106.046 81.5048C111.736 81.3044 117.431 81.1313 123.124 80.9666C126.924 80.8595 130.728 80.7744 134.517 80.4476C135.22 80.3844 135.929 80.3157 136.594 80.0686C137.217 79.8187 137.854 79.5825 138.532 79.5551C143.536 79.2695 148.55 79.2969 153.559 79.1981C159.817 79.047 166.076 79.1486 172.337 79.0058C177.719 78.9235 183.105 78.9894 188.487 78.8768C191.491 78.8658 194.495 78.7944 197.5 78.8136C200.444 78.7971 203.385 78.8328 206.326 78.7587C211.208 78.7257 216.091 78.745 220.974 78.7395C225.175 78.7395 229.374 78.7038 233.576 78.7614C232.463 79.0223 231.31 78.929 230.179 78.9564C224.728 79.0663 219.276 79.1981 213.825 79.2805C211.387 79.3271 208.948 79.4864 206.51 79.4535C205.746 79.4452 204.975 79.4672 204.228 79.6594C205.862 79.7912 207.501 79.8242 209.135 79.945C212.524 80.1949 215.921 80.2663 219.315 80.4201C218.628 80.5547 217.928 80.6206 217.228 80.6288C209.772 80.6041 202.325 81.0133 194.872 81.0572C183.604 81.3098 172.332 81.4691 161.07 82.0183C154.251 82.2875 147.427 82.5209 140.614 82.9328C139.719 82.9767 138.799 82.9603 137.931 83.2294C138.944 83.32 139.96 83.2816 140.976 83.2953C148.05 83.3502 155.122 83.4298 162.198 83.4298C165.642 83.4793 169.088 83.5342 172.535 83.6138C179.856 83.6633 187.174 83.6331 194.495 83.7045C197.305 83.7649 200.114 83.7649 202.921 83.7923C204.123 83.7896 205.299 84.0615 206.491 84.1521C207.051 84.196 207.611 84.2757 208.135 84.4761C207.721 84.9512 207.075 85.094 206.603 85.4949C206.578 85.6048 206.532 85.819 206.507 85.9288C207.339 85.8492 208.127 85.5691 208.937 85.3988C209.725 85.2313 210.516 85.094 211.313 84.9622C212.266 84.8029 213.26 84.8194 214.166 84.4404C213.488 84.0834 212.708 84.1383 211.966 84.1191C210.983 84.0972 209.981 84.1329 209.022 83.8775C209.481 83.6962 209.964 83.5836 210.456 83.5781C211.821 83.5369 213.186 83.5122 214.545 83.5974C218.898 83.9049 223.247 84.1933 227.592 84.5832C228.531 84.6683 229.476 84.7343 230.396 84.9375C229.783 85.1544 229.138 85.2286 228.492 85.2752C224.796 85.5553 221.094 85.7943 217.395 86.0194C216.237 86.1101 215.047 86.0222 213.922 86.3655C214.449 86.7938 215.152 86.7856 215.794 86.8295C221.336 87.1234 226.886 86.857 232.428 87.1179C234.386 87.2305 236.36 87.0822 238.302 87.3843C237.055 87.5408 235.794 87.5161 234.542 87.5628C226.955 87.7879 219.362 87.7083 211.774 87.722C208.446 87.744 205.123 87.5792 201.795 87.5737C200.367 87.5765 198.925 87.5875 197.516 87.8676C196.692 87.9966 196.074 88.6502 195.256 88.793C194.52 88.9303 193.732 88.9276 193.067 89.3203C193.707 89.5729 194.399 89.6471 195.083 89.6608C196.577 89.6937 198.074 89.702 199.57 89.6855C199.971 89.6635 200.383 89.6745 200.765 89.5372C200.941 89.3368 200.996 89.0567 201.185 88.8672C201.869 88.598 202.616 88.5569 203.341 88.469C204.961 88.3344 206.587 88.2548 208.212 88.2768C207.647 88.7601 206.946 89.0759 206.438 89.6251C206.414 89.724 206.364 89.9162 206.339 90.015C206.751 90.0919 207.172 90.1167 207.575 90.2128C208.089 90.405 208.396 90.9844 208.97 91.0393C210.286 91.1986 211.615 91.2151 212.933 91.3552C211.475 91.7726 209.734 91.5117 208.55 92.6348C210.623 92.8161 212.708 92.849 214.787 92.9149C215.295 92.9369 215.808 92.9671 216.286 93.1484C216.421 93.6784 215.915 94.0024 215.525 94.2358C214.152 95.0322 212.529 95.0597 211.011 95.3508C210.563 95.4551 210.03 95.5595 209.791 96.0043C209.245 97.0039 209.132 98.16 208.836 99.242C208.083 99.4617 207.287 99.3546 206.513 99.3683C203.008 99.3546 199.504 99.3656 195.998 99.3656C193.938 99.3573 191.881 99.5029 189.824 99.5688C188.624 99.621 187.421 99.6924 186.23 99.8407C185.82 99.8846 185.422 100.003 185.071 100.222C185.702 100.549 186.419 100.648 187.119 100.7C188.951 100.821 190.783 100.931 192.614 100.928C197.813 100.953 203.008 100.925 208.204 100.928C211.403 100.95 214.592 100.621 217.785 100.5C218.573 100.472 219.37 100.456 220.141 100.626C219.617 100.947 219.027 101.148 218.428 101.28C216.179 101.782 213.894 102.183 211.585 102.183C209.52 102.158 207.427 102.205 205.409 102.664C205.969 102.966 206.614 103.12 207.114 103.531C205.604 103.737 204.077 103.523 202.564 103.639C201.677 103.704 201.026 104.473 200.133 104.534C197.931 104.677 195.577 104.07 193.504 105.078C192.9 105.382 192.098 105.945 192.31 106.731C192.584 107.241 193.205 107.414 193.71 107.615C194.866 107.975 196.031 108.312 197.203 108.62C198.59 108.952 200.029 108.87 201.44 108.829C202.437 108.763 203.486 108.738 204.387 108.258C204.39 108.189 204.398 108.057 204.401 107.988C203.3 107.296 201.844 107.48 200.812 106.646C201.732 106.305 202.72 106.338 203.681 106.278C205.502 106.173 207.325 106.121 209.146 106.033C212.84 105.926 216.539 106.003 220.224 106.3C221.3 106.396 222.396 106.387 223.448 106.668C222.673 107.156 221.756 107.302 220.872 107.464C218.659 107.862 216.396 107.813 214.163 108.065C211.966 108.359 209.712 108.494 207.586 109.161C207.553 109.224 207.487 109.35 207.454 109.416C208.638 109.625 209.824 109.334 211.008 109.293C212.925 109.205 214.844 109.23 216.761 109.166C221.103 109.037 225.472 109.002 229.778 109.636C230.632 109.801 231.65 109.955 232.142 110.765C231.862 111.476 231.041 111.682 230.39 111.913C228.248 112.514 226.013 112.772 223.791 112.753C217.283 112.775 210.772 112.753 204.261 112.684C200.691 112.701 197.118 112.665 193.548 112.786C193.062 112.819 192.551 112.838 192.098 113.052C191.788 113.203 191.527 113.552 191.634 113.915C192.098 114.45 192.765 114.752 193.4 115.04C194.449 115.51 195.627 115.386 196.742 115.378C200.405 115.31 204.035 114.821 207.666 114.381C212.395 113.816 217.162 113.994 221.91 114.088C223.418 114.093 224.92 114.175 226.422 114.184C227.232 114.195 228.05 114.184 228.847 114.351C228.6 114.813 228.218 115.191 228.012 115.678C227.987 116.282 228.13 116.894 228.363 117.452C228.847 118.319 230.143 118.289 230.579 119.193C229.368 119.923 227.655 119.437 226.628 120.56C226.718 120.796 226.861 121.027 227.1 121.145C228.174 121.716 229.476 121.642 230.544 122.23C230.805 122.4 231.153 122.702 230.997 123.048C230.632 123.438 230.074 123.589 229.712 123.987C229.632 124.3 229.599 124.624 229.517 124.94C229.119 125.261 228.352 125.294 228.407 125.956C229.119 126.165 229.887 126.159 230.547 126.533H237.566C237.102 126.302 236.561 126.094 236.3 125.613C236.758 124.959 237.56 124.721 238.285 124.504C241.045 123.748 243.904 123.457 246.721 122.988C247.218 122.889 247.735 122.815 248.185 122.57C248.49 122.298 248.646 121.903 248.902 121.593C249.692 121.184 250.755 121.247 251.354 120.494C251.335 120.395 251.299 120.198 251.28 120.096C250.448 119.876 249.58 119.832 248.748 119.615C245.521 118.888 242.171 118.921 238.955 118.13C238.357 117.979 237.75 117.754 237.307 117.306C237.582 116.622 238.367 116.424 238.996 116.208C241.366 115.527 243.838 115.307 246.246 114.813C247.616 114.524 249.022 114.247 250.261 113.563C250.799 113.253 251.368 112.833 251.51 112.187C251.642 111.654 251.37 111.138 251.071 110.718C250.494 109.924 249.882 109.095 248.962 108.68C247.822 108.057 246.488 107.851 245.395 107.134C245.406 107.027 245.431 106.816 245.441 106.709C245.895 106.398 246.438 106.269 246.957 106.129C248.838 105.651 250.794 105.3 252.521 104.372C252.919 104.141 253.353 103.869 253.512 103.413C253.554 102.502 252.299 102.147 252.345 101.233C252.812 101.038 253.328 101.03 253.825 101.019C255.646 101.019 257.47 100.953 259.29 100.947C263.418 100.84 267.548 100.903 271.675 100.78C278.815 100.711 285.955 100.728 293.092 100.717C293.543 100.703 293.99 100.632 294.43 100.533C284.722 100.036 275.001 99.923 265.29 99.6265C260.812 99.5606 256.338 99.3628 251.859 99.3656C251.966 99.0965 252.093 98.8328 252.169 98.5527C252.035 98.1436 251.634 97.9184 251.266 97.7454C249.717 97.0671 248.048 96.7485 246.4 96.4135C246.01 96.2762 245.387 96.2432 245.315 95.738C245.494 95.2409 245.947 94.9086 246.408 94.7027C247.399 94.2523 248.528 94.299 249.519 93.8679C249.789 93.7196 250.212 93.5218 250.082 93.1429C249.703 92.6403 249.141 92.3081 248.773 91.7945C248.888 91.5419 249.061 91.2838 249.352 91.2371C250.352 90.9734 251.414 91.0641 252.395 91.3634C253.01 91.5748 253.581 91.0915 254.196 91.1053C257.082 91.086 259.968 91.0036 262.855 90.9789C265.03 90.957 267.202 90.8224 269.374 90.784C269.885 90.7785 270.39 90.6878 270.868 90.5176C269.978 90.2677 269.044 90.2704 268.13 90.221C263.429 89.9739 258.722 89.7624 254.015 89.7734C253.386 89.7432 252.754 90.0041 252.134 89.8997C251.25 89.4164 250.404 88.8507 249.533 88.3372C249.728 88.0571 250.003 87.8291 250.327 87.7193C251.618 87.2387 253.029 87.3733 254.355 87.0575C254.951 86.9696 255.105 86.2941 255.55 85.9892C255.94 85.7915 256.374 85.6954 256.766 85.5059C256.879 85.2945 256.821 85.1654 256.588 85.1187C255.402 84.8798 254.147 85.083 252.996 84.6436C253.037 84.2043 253.529 84.196 253.858 84.1164C255.778 83.8528 257.719 83.8061 259.655 83.7704C265.598 83.5507 271.546 83.7182 277.491 83.5726C279.872 83.5562 282.253 83.4793 284.634 83.4903C290.39 83.3804 296.151 83.4628 301.91 83.3063C305.425 83.2706 308.946 83.2623 312.458 83.0893C312.15 82.9712 311.821 83.0426 311.505 82.9795C308.558 82.8971 305.609 82.8312 302.662 82.8065C296.344 82.628 290.019 82.7653 283.7 82.6362C277.502 82.5758 271.302 82.5401 265.104 82.5209C262.061 82.5099 259.018 82.4962 255.981 82.3122C254.94 82.2188 253.85 82.1447 252.905 81.6586C252.669 81.557 252.554 81.3208 252.491 81.0874C253.372 80.9583 254.265 81.0078 255.152 81.005C268.045 81.0188 280.941 81.0188 293.836 81.0682C300.411 81.1313 306.974 81.5131 313.543 81.7739C317.546 81.9689 321.558 82.065 325.565 81.8755C326.397 81.8371 327.243 81.8261 328.059 81.6229C327.122 81.0352 325.958 81.3373 324.928 81.0737C326.23 80.4228 327.825 80.8485 329.077 80.0768C329.088 79.967 329.108 79.7473 329.116 79.6402C328.665 79.4068 328.171 79.2832 327.68 79.1734C325.571 78.7065 323.423 78.4182 321.267 78.2891C319.749 78.1985 318.23 78.1326 316.714 77.9898C317.714 77.8223 318.73 77.7948 319.738 77.7756C321.918 77.7042 324.093 77.5394 326.252 77.2538C327.037 77.1193 327.886 77.0286 328.539 76.5288C328.495 75.8341 327.669 75.6885 327.243 75.2766C326.765 74.7878 326.334 74.2578 325.776 73.8569C326.046 73.7443 326.337 73.6976 326.581 73.5301C325.285 72.6431 323.665 72.9534 322.196 72.8463C319.694 72.6733 317.187 72.5937 314.679 72.6156C309.734 72.5992 304.788 72.6129 299.845 72.5195C298.889 72.5195 297.928 72.5278 296.983 72.3547C299.936 72.1817 302.899 72.146 305.853 72.0444C310.989 71.9978 316.118 71.8659 321.251 71.7369C322.448 71.671 323.662 71.7204 324.846 71.4952C324.585 70.9817 323.992 70.8801 323.473 70.8169C321.287 70.5615 319.079 70.6769 316.887 70.4764C318.461 70.0947 320.092 70.2814 321.685 70.0727C322.553 69.9601 323.198 69.2956 324.003 69.0155C324.832 68.7244 325.727 68.7271 326.562 68.4662C326.282 68.1422 325.774 68.2987 325.392 68.2603C322.138 68.4415 318.878 68.3564 315.616 68.4003C312.601 68.3811 309.588 68.5431 306.57 68.436C307.929 68.1669 309.314 68.1614 310.689 68.0461C313.208 67.8511 315.734 67.7248 318.241 67.3843C318.757 67.3129 319.287 67.2168 319.752 66.9669C319.65 66.4698 319.2 66.1842 318.845 65.8712C319.109 65.7119 319.373 65.5581 319.647 65.4153C318.785 65.0061 317.807 65.0528 316.896 64.8414C317.813 64.4597 318.823 64.5008 319.798 64.4597C321.731 64.4212 323.665 64.3718 325.595 64.2592C326.315 64.218 327.04 64.0999 327.691 63.7759C327.279 63.5479 326.826 63.4216 326.359 63.3722C323.851 63.0756 321.325 63.0399 318.807 62.941C317.909 62.9218 317.115 62.3863 316.555 61.7218C316.797 61.2412 317.239 60.9172 317.612 60.5464C318.266 59.9423 318.829 59.2503 319.362 58.5335C320.606 56.9051 321.663 55.1366 322.577 53.3049C323.92 50.6934 324.994 47.95 325.867 45.1517C326.087 44.4679 326.202 43.7594 326.452 43.0893C326.96 42.9136 327.509 42.9246 328.023 42.7681C328.561 42.4907 328.308 41.6312 327.787 41.5076C327.183 41.3758 326.559 41.4087 325.947 41.406C324.53 41.4307 323.096 41.4032 321.704 41.7108C319.834 42.1145 317.939 42.3561 316.05 42.6445C309.261 43.6139 302.47 44.5558 295.66 45.3412C281.078 47.0795 266.438 48.2466 251.791 49.2434C250.978 49.2846 250.168 49.356 249.352 49.356C249.687 48.7079 250.118 48.1175 250.442 47.4667C250.997 46.371 251.315 45.1407 251.258 43.9104C251.233 43.1553 251.085 42.3973 251.208 41.6449C251.321 40.9639 251.233 40.2746 251.236 39.5908C251.239 38.9784 251.521 38.4237 251.736 37.869C252.318 36.4904 252.636 35.0212 252.864 33.5493C253.013 32.6129 253.109 31.6518 252.952 30.7098C252.516 27.9665 251.661 25.3165 250.857 22.6637C250.376 21.0819 250.129 19.3684 249.141 17.9953C248.116 16.5481 247.103 14.9993 245.538 14.0821C244.78 13.5878 243.846 13.4642 243.096 12.9534C242.715 12.7063 242.36 12.4069 241.932 12.2394C241.267 12.0252 240.54 12.2422 239.875 12.039C239.276 11.4376 239.351 10.4792 239.54 9.71575C239.85 8.56513 240.01 7.36507 239.9 6.176C239.774 5.44828 239.417 4.78921 239.161 4.10268C238.933 3.3832 238.184 2.89164 238.244 2.08428C237.87 1.91677 237.453 1.86185 237.077 1.69433C236.753 1.43071 236.517 1.0792 236.19 0.823813C235.764 0.615108 235.281 0.573916 234.858 0.362464ZM233.49 31.1163C233.614 31.8687 233.641 32.6349 233.735 33.3901C233.847 34.3512 234.007 35.3288 233.814 36.29C233.685 36.9188 233.603 37.5559 233.438 38.1765C232.999 38.3935 232.491 38.4264 232.051 38.6489C231.681 39.0443 231.472 39.5633 231.077 39.9395C230.742 40.0906 230.371 40.1263 230.011 40.1977C228.38 40.4531 226.762 40.8046 225.145 41.1451C224.89 41.178 224.585 41.2851 224.365 41.0819C223.824 40.6947 223.291 40.2801 222.822 39.8105C222.555 39.6018 222.816 39.286 222.846 39.0333C223.214 38.0694 222.528 37.0451 222.901 36.0867C223.094 35.6254 223.322 35.1503 223.714 34.829C224.093 34.678 224.508 34.6725 224.903 34.6313C226.356 34.5324 227.825 34.3869 229.217 33.9365C230.217 33.6235 231.129 33.1017 232.082 32.6788C232.796 32.4152 232.952 31.5804 233.49 31.1163ZM216.767 31.5996C218.063 31.7506 219.362 31.9374 220.628 32.2504C220.144 32.7255 219.557 33.1456 219.326 33.8157C218.969 34.6066 218.815 35.6364 217.986 36.0867C217.538 35.8368 217.154 35.4881 216.761 35.1586C215.468 34.0766 214.133 33.0385 212.897 31.8879C214.067 31.1959 215.49 31.5666 216.767 31.5996ZM199.112 75.1695C203.53 75.3123 207.946 75.5293 212.351 75.8643C213.606 76.0208 214.902 75.9274 216.121 76.3119C213.424 76.5096 210.717 76.4986 208.015 76.6167C198.313 76.7842 188.611 76.9627 178.909 77.1385C175.959 77.2428 173.002 77.1907 170.05 77.2648C163.668 77.4488 157.28 77.3664 150.895 77.4488C142.896 77.512 134.894 77.49 126.891 77.4982C115.687 77.5257 104.48 77.5284 93.2735 77.4625C92.3975 77.4296 91.505 77.5669 90.6345 77.4021C92.208 77.4378 93.7705 77.2016 95.3413 77.2291C100.474 77.2181 105.606 77.0122 110.739 77.0012C115.061 76.8694 119.384 76.8913 123.706 76.8611C130.401 76.6607 137.102 76.7238 143.797 76.6662C144.854 76.5893 145.911 76.4794 146.968 76.5151C146.62 76.4163 146.232 76.452 145.864 76.4437C144.173 76.5261 142.478 76.3778 140.787 76.3449C135.333 76.2844 129.885 76.1499 124.434 76.1005C124.626 76.0291 124.815 75.9357 125.019 75.9274C131.148 75.8341 137.28 75.6995 143.409 75.5842C146.853 75.4963 150.299 75.5457 153.743 75.4853C160.062 75.348 166.383 75.3068 172.7 75.175C177.774 75.1338 182.849 75.164 187.921 75.0542C191.653 74.991 195.382 75.0514 199.112 75.1695ZM257.527 75.5293C261.243 75.5979 264.958 75.5595 268.674 75.6776C279.07 75.8396 289.47 76.0208 299.867 76.3037C299.161 76.6497 298.351 76.4739 297.593 76.5179C285.95 76.7815 274.306 76.9875 262.662 77.1879C259.658 77.2291 256.654 77.2071 253.65 77.3087C252.277 77.3005 250.895 77.4433 249.528 77.2868C249.558 76.7733 249.816 76.2844 250.244 75.9988C250.967 75.5155 251.867 75.4798 252.705 75.4743C254.314 75.4716 255.923 75.4771 257.527 75.5293ZM230.489 92.9891C231.115 93.2198 231.645 93.6729 232.076 94.1727C230.579 94.2029 229.072 94.2139 227.586 93.9859C226.081 93.7635 224.565 93.6399 223.052 93.5054C222.237 93.4504 221.416 93.3708 220.6 93.4779C220.353 93.4889 220.139 93.6289 220.026 93.8514C220.971 94.3594 222.069 94.4033 223.113 94.5269C224.766 94.678 226.4 94.969 228.034 95.2492C229.437 95.4936 230.788 95.9494 232.128 96.4163C232.537 96.5673 232.955 96.7073 233.326 96.938C233.595 97.6053 232.823 98.042 232.301 98.2342C230.417 98.896 228.394 98.9674 226.422 99.1239C223.755 99.231 221.081 99.2255 218.417 99.0306C216.621 98.9152 214.803 98.8603 213.057 98.3935C212.419 98.204 211.749 98.009 211.244 97.5559C211.244 97.4433 211.244 97.2236 211.244 97.111C211.65 96.5947 212.345 96.4849 212.944 96.3421C214.608 96.029 216.302 95.9137 217.953 95.532C218.708 95.3865 219.449 95.1256 220.221 95.1256C221.155 95.2711 222.064 95.911 223.028 95.5485C222.737 95.1475 222.344 94.7933 221.85 94.6752C220.927 94.4583 219.925 94.6807 219.035 94.2908C218.705 94.1534 218.447 93.8624 218.37 93.5109C218.502 93.3131 218.683 93.1374 218.928 93.1017C219.658 92.9342 220.419 92.9699 221.16 92.9342C223.538 92.8326 225.919 92.8545 228.297 92.8271C229.031 92.8326 229.778 92.7969 230.489 92.9891ZM232.117 101.683C232.584 102.282 233.273 102.576 233.93 102.911C233.924 102.99 233.913 103.147 233.911 103.227C232.48 103.63 230.947 103.136 229.536 103.625C229.783 103.883 230.047 104.13 230.308 104.375C229.066 104.55 227.825 104.712 226.587 104.913C224.92 105.182 223.225 105.207 221.539 105.198C220.916 105.182 220.268 105.157 219.688 104.905L219.65 104.742C220.825 104.594 222.028 104.613 223.179 104.306C223.17 104.243 223.151 104.111 223.143 104.048C222.47 103.729 221.718 103.619 220.976 103.592C218.469 103.523 215.962 103.644 213.457 103.696C212.507 103.715 211.549 103.721 210.615 103.537C211.392 103.24 212.235 103.268 213.048 103.174C215.201 102.941 217.365 102.85 219.51 102.573C221.814 102.293 224.118 102.024 226.427 101.801C228.05 101.648 229.673 101.425 231.304 101.494C231.574 101.538 231.909 101.475 232.117 101.683Z" fill="white"/>
</g>
<path d="M37.6658 82.5449C35.4085 82.273 33.9091 81.5041 33.1621 80.2381C32.4207 78.9694 32.0527 77.4288 32.0527 75.6137C32.0527 74.8942 32.0774 74.345 32.1296 73.955C27.6699 79.3511 22.6308 82.0506 17.015 82.0506C13.8734 82.0506 11.0065 81.2212 8.41411 79.5681C5.82727 77.9204 3.77866 75.5285 2.2628 72.3952C0.752437 69.2536 0 65.5629 0 61.3229C0 54.3807 1.74653 47.3286 5.2396 40.1667C8.73815 33.0049 13.1979 27.1007 18.6187 22.4488C24.045 17.7914 29.4604 15.4626 34.8647 15.4626C38.2178 15.4626 40.692 16.3853 42.2903 18.2307C43.894 20.0761 44.6959 22.4048 44.6959 25.2169C44.6959 27.2023 44.3361 29.1575 43.6194 31.0826C42.8999 33.0104 41.9497 34.5949 40.7634 35.8389C39.5826 37.0774 38.3056 37.6952 36.9298 37.6952C36.2103 37.6952 35.5732 37.492 35.0185 37.0801C34.4693 36.6627 33.9475 35.9569 33.4587 34.9601C34.2771 34.4109 35.2108 33.4223 36.2598 31.9943C37.306 30.5608 38.1985 29.0175 38.94 27.3698C39.6869 25.7167 40.0604 24.2557 40.0604 22.987C40.0604 21.8309 39.6869 20.8945 38.94 20.175C38.1985 19.4583 37.0864 19.0985 35.6007 19.0985C31.5804 19.0985 27.4063 21.4547 23.0784 26.1615C18.756 30.8711 15.1503 36.627 12.2587 43.4291C9.37251 50.234 7.9308 56.4979 7.9308 62.2236C7.9308 65.475 8.4251 68.298 9.4137 70.6926C10.4023 73.0872 11.7342 74.9161 13.4121 76.1849C15.0954 77.4508 16.96 78.0852 19.0032 78.0852C21.8646 78.0852 24.4954 76.8879 26.89 74.4932C29.2846 72.0986 31.2234 69.0861 32.7118 65.453C34.1974 61.8144 35.1064 58.1785 35.4359 54.5454C32.7392 53.9962 29.7927 53.7216 26.5934 53.7216C25.6048 53.7216 23.7869 53.7765 21.1451 53.8864C21.6422 51.9531 22.4248 50.5333 23.4958 49.6244C24.5723 48.7182 25.992 48.2623 27.7578 48.2623C29.0759 48.2623 30.4215 48.4435 31.8001 48.8005C33.1759 49.1603 34.9114 49.6985 37.0067 50.4153C39.319 51.294 41.3044 51.8982 42.9603 52.2277C40.5355 59.7191 39.0059 64.7225 38.3688 67.2325C37.7372 69.737 37.4241 72.2524 37.4241 74.7788L37.501 78.6673C37.6109 80.2107 37.6658 81.5041 37.6658 82.5449Z" fill="white"/>
<path d="M50.3055 78.7445C48.3777 78.7445 46.7685 78.1101 45.4723 76.8441C44.1762 75.5837 43.5281 73.7987 43.5281 71.4837C43.5281 68.2845 44.7007 64.7035 47.0431 60.7409C49.3856 56.7728 52.3733 53.4115 56.0064 50.6571C59.6451 47.9055 63.2809 46.527 66.914 46.527C69.3361 46.527 71.3627 47.1503 72.9885 48.3943C74.6142 49.6328 75.427 51.2146 75.427 53.1396C75.427 55.6743 73.8562 56.9952 70.7147 57.105C72.6974 57.7147 73.6915 58.5413 73.6915 59.5875C73.6915 59.9692 73.4965 60.5487 73.1093 61.3231C72.7193 62.092 72.28 62.8911 71.7911 63.7177C70.9041 65.1457 70.2121 66.3979 69.7151 67.4744C69.2235 68.5509 68.9791 69.5559 68.9791 70.4841C68.9791 71.3135 69.1823 72.0165 69.5942 72.5931C70.0117 73.1726 70.6323 73.4609 71.4616 73.4609C72.9994 73.4609 74.9657 72.3899 77.3603 70.2425C79.7549 68.0978 82.0836 64.8766 84.3464 60.5761L85.9172 62.1469C83.8741 66.7165 81.3367 70.3935 78.3049 73.1753C75.2787 75.9571 72.225 77.3494 69.1439 77.3494C66.9387 77.3494 65.2444 76.6162 64.0581 75.1525C62.8772 73.6971 62.2896 72.0302 62.2896 70.1546C59.8071 73.1286 57.6816 75.3008 55.9186 76.6794C54.1611 78.0552 52.2882 78.7445 50.3055 78.7445ZM52.041 74.5374C53.9661 74.5374 56.2097 73.1479 58.7745 70.3633C61.3367 67.5815 64.2448 63.9593 67.4962 59.4996L69.1439 57.2698C69.3114 56.9924 69.5311 56.8524 69.803 56.8524L70.1325 56.9403C70.4098 56.0615 70.5499 55.0454 70.5499 53.8866C70.5499 51.0251 69.391 49.5916 67.0788 49.5916C64.654 49.5916 62.1193 50.8878 59.4775 53.4802C56.833 56.067 54.6142 59.1481 52.8209 62.7291C51.0332 66.3045 50.1407 69.3582 50.1407 71.8901C50.1407 72.8293 50.289 73.5049 50.5911 73.9223C50.8987 74.3342 51.382 74.5374 52.041 74.5374Z" fill="white"/>
<path d="M110.206 76.5146C108.111 76.5146 106.485 75.9901 105.329 74.9438C104.17 73.9058 103.594 72.5272 103.594 70.8136C103.594 70.1051 103.717 69.2813 103.967 68.3421C104.214 67.4057 104.475 66.4693 104.747 65.5301C105.516 62.9982 105.9 61.1253 105.9 59.917C105.9 58.8131 105.626 58.0002 105.077 57.4785C104.527 56.9512 103.838 56.6876 103.012 56.6876C100.095 56.6876 97.1485 58.522 94.169 62.1908C91.1949 65.8541 88.0012 70.4923 84.5905 76.1082C82.2261 76.1082 80.4356 75.309 79.2191 73.7135L79.9661 71.6485C83.2175 63.7698 84.8432 57.9288 84.8432 54.1282C85.2825 53.6394 85.9114 53.189 86.7325 52.7771C87.5591 52.3597 88.3609 52.151 89.1381 52.151C90.0745 52.151 90.7885 52.3707 91.2801 52.8101C91.7771 53.2495 92.027 53.8536 92.027 54.6225C92.027 56.1109 91.5574 58.5632 90.621 61.9821C93.1035 58.673 95.6766 55.9736 98.3431 53.8866C101.015 51.794 103.649 50.745 106.241 50.745C108.438 50.745 110.14 51.5029 111.349 53.0188C112.563 54.5346 113.172 56.3361 113.172 58.4231C113.172 59.6397 113.021 60.8013 112.722 61.9052C112.42 63.0037 111.967 64.2422 111.36 65.618C110.421 67.933 109.954 69.6658 109.954 70.8136C109.954 71.643 110.143 72.2499 110.525 72.6371C110.912 73.027 111.384 73.2192 111.942 73.2192C113.757 73.2192 115.723 71.967 117.841 69.4626C119.963 66.9526 121.877 63.9895 123.585 60.5761L124.991 61.7295C123.006 66.299 120.817 69.9074 118.423 72.5492C116.028 75.191 113.287 76.5146 110.206 76.5146Z" fill="white"/>
<path d="M125.566 98.0001C124.02 98.0001 122.699 97.5442 121.601 96.638C120.503 95.729 119.953 94.4219 119.953 92.7165C119.953 90.5636 120.763 88.6029 122.381 86.8398C124.007 85.0823 125.89 83.5802 128.038 82.3362C130.191 81.0977 133.028 79.656 136.551 78.0083C137.927 74.5372 139.028 71.0963 139.857 67.6829C135.398 73.3015 131.212 76.108 127.302 76.108C125.097 76.108 123.348 75.3391 122.051 73.8013C120.763 72.2579 120.118 70.2176 120.118 67.6829C120.118 63.9921 121.332 60.4963 123.754 57.1927C126.176 53.8837 129.175 51.2254 132.75 49.218C136.331 47.2051 139.747 46.1973 142.999 46.1973C144.704 46.1973 146.011 46.5021 146.92 47.109C147.826 47.7186 148.282 48.4601 148.282 49.3388C148.282 49.8881 148.118 50.3878 147.788 50.8327C147.459 51.2721 147.184 51.5192 146.964 51.5687C146.415 51.0195 145.86 50.635 145.306 50.4153C144.756 50.1956 144.07 50.0858 143.251 50.0858C140.549 50.0858 137.929 51.0936 135.398 53.1065C132.863 55.1139 130.809 57.5332 129.235 60.3672C127.667 63.2012 126.885 65.7496 126.885 68.0124C126.885 69.1109 127.118 69.9512 127.588 70.5279C128.054 71.1073 128.678 71.3957 129.455 71.3957C130.941 71.3957 132.772 70.4345 134.947 68.5067C137.122 66.5817 139.281 64.102 141.428 61.0703C142.035 57.9891 142.749 55.773 143.57 54.4246C144.397 53.0708 145.583 52.3925 147.129 52.3925C147.846 52.3925 148.645 52.5024 149.524 52.722C149.524 54.1583 148.914 57.0252 147.7 61.3229C146.492 65.6151 145.034 70.0748 143.328 74.702C146.08 73.5459 148.738 71.7444 151.303 69.2976C153.865 66.8453 155.697 64.0196 156.795 60.8176L158.278 62.3115C157.07 65.7826 154.909 68.9242 151.797 71.7362C148.683 74.5427 145.503 76.6847 142.252 78.1731C139.717 84.286 137.089 89.1191 134.365 92.6726C131.641 96.2233 128.708 98.0001 125.566 98.0001ZM125.237 94.1994C126.335 94.1994 127.766 93.1779 129.532 91.1348C131.295 89.0972 133.113 86.016 134.98 81.8858C131.405 83.6489 128.626 85.3157 126.643 86.8838C124.657 88.4573 123.666 90.1242 123.666 91.8817C123.666 92.5985 123.814 93.1614 124.116 93.5733C124.424 93.9907 124.798 94.1994 125.237 94.1994Z" fill="white"/>
<path d="M159.354 78.7445C157.426 78.7445 155.817 78.1101 154.52 76.8441C153.224 75.5837 152.576 73.7987 152.576 71.4837C152.576 68.2845 153.749 64.7035 156.091 60.7409C158.434 56.7728 161.421 53.4115 165.055 50.6571C168.693 47.9055 172.329 46.527 175.962 46.527C178.384 46.527 180.411 47.1503 182.037 48.3943C183.662 49.6328 184.475 51.2146 184.475 53.1396C184.475 55.6743 182.904 56.9952 179.763 57.105C181.745 57.7147 182.74 58.5413 182.74 59.5875C182.74 59.9692 182.545 60.5487 182.157 61.3231C181.767 62.092 181.328 62.8911 180.839 63.7177C179.952 65.1457 179.26 66.3979 178.763 67.4744C178.272 68.5509 178.027 69.5559 178.027 70.4841C178.027 71.3135 178.23 72.0165 178.642 72.5931C179.06 73.1726 179.68 73.4609 180.51 73.4609C182.048 73.4609 184.014 72.3899 186.408 70.2425C188.803 68.0978 191.132 64.8766 193.395 60.5761L194.965 62.1469C192.922 66.7165 190.385 70.3935 187.353 73.1753C184.327 75.9571 181.273 77.3494 178.192 77.3494C175.987 77.3494 174.292 76.6162 173.106 75.1525C171.925 73.6971 171.338 72.0302 171.338 70.1546C168.855 73.1286 166.73 75.3008 164.967 76.6794C163.209 78.0552 161.336 78.7445 159.354 78.7445ZM161.089 74.5374C163.014 74.5374 165.258 73.1479 167.823 70.3633C170.385 67.5815 173.293 63.9593 176.544 59.4996L178.192 57.2698C178.359 56.9924 178.579 56.8524 178.851 56.8524L179.181 56.9403C179.458 56.0615 179.598 55.0454 179.598 53.8866C179.598 51.0251 178.439 49.5916 176.127 49.5916C173.702 49.5916 171.167 50.8878 168.526 53.4802C165.881 56.067 163.662 59.1481 161.869 62.7291C160.081 66.3045 159.189 69.3582 159.189 71.8901C159.189 72.8293 159.337 73.5049 159.639 73.9223C159.947 74.3342 160.43 74.5374 161.089 74.5374Z" fill="white"/>
<path d="M160.308 96.7024C160.1 97.1569 159.898 97.6214 159.7 98.0958C159.512 98.5602 159.32 99.0198 159.122 99.4744C158.401 97.7548 157.674 96.0452 156.943 94.3454C156.212 92.6456 155.485 90.9311 154.764 89.2016H153.519V88.6235H156.498V89.2016H155.387C155.989 90.6346 156.587 92.0576 157.18 93.4708C157.773 94.8741 158.376 96.2824 158.989 97.6955L159.122 98.1254C159.251 97.7795 159.394 97.404 159.552 96.9988C159.72 96.5936 159.888 96.1984 160.056 95.8129C160.303 95.2101 160.555 94.6122 160.812 94.0193C161.069 93.4165 161.321 92.8186 161.568 92.2256C161.36 91.7216 161.148 91.2226 160.931 90.7285C160.723 90.2245 160.511 89.7155 160.293 89.2016H159.048V88.6235H162.013V89.2016H160.916C161.509 90.6346 162.102 92.0576 162.695 93.4708C163.288 94.8741 163.89 96.2824 164.503 97.6955L164.636 98.1254L164.77 97.6955C165.373 96.2824 165.971 94.8741 166.564 93.4708C167.166 92.0576 167.769 90.6346 168.372 89.2016H167.349V88.6235H170.329V89.2016H168.995C168.273 90.9311 167.547 92.6456 166.816 94.3454C166.094 96.0452 165.368 97.7548 164.636 99.4744L162.013 93.2929L161.879 92.8927C161.642 93.4856 161.39 94.1132 161.123 94.7753C160.856 95.4275 160.585 96.0699 160.308 96.7024ZM174.229 99H171.368V98.4219H172.524V88.4605H171.427V87.8824H173.132V94.212L173.087 94.8791C173.295 94.4047 173.611 94.0292 174.036 93.7525C174.461 93.4758 174.955 93.3325 175.518 93.3226C176.062 93.3226 176.492 93.4758 176.808 93.7821C177.124 94.0885 177.292 94.4887 177.312 94.9828V98.4219H178.409V99H175.548V98.4219H176.704V95.1459C176.685 94.8198 176.566 94.5431 176.349 94.3158C176.141 94.0786 175.83 93.9501 175.415 93.9304C175.108 93.9304 174.817 93.9798 174.54 94.0786C174.263 94.1774 174.026 94.3158 173.829 94.4936C173.611 94.6814 173.438 94.8988 173.31 95.1459C173.191 95.3929 173.132 95.6647 173.132 95.9612V98.4219H174.229V99ZM182.351 93.9155C181.975 93.9155 181.63 93.9946 181.313 94.1527C181.007 94.3108 180.75 94.5233 180.542 94.7901C180.345 95.0471 180.206 95.3386 180.127 95.6647C180.048 95.9809 180.043 96.3071 180.113 96.6431C180.785 96.3762 181.452 96.1144 182.114 95.8574C182.786 95.5906 183.458 95.3238 184.13 95.0569C183.952 94.7209 183.705 94.4492 183.389 94.2416C183.082 94.0242 182.736 93.9155 182.351 93.9155ZM184.293 98.3329C184.036 98.5701 183.744 98.7579 183.418 98.8962C183.092 99.0346 182.736 99.1038 182.351 99.1038C181.946 99.1038 181.565 99.0296 181.21 98.8814C180.864 98.7332 180.557 98.5256 180.29 98.2588C180.024 97.992 179.816 97.6856 179.668 97.3398C179.52 96.9939 179.446 96.6184 179.446 96.2132C179.446 95.8179 179.52 95.4424 179.668 95.0866C179.816 94.7308 180.024 94.4245 180.29 94.1675C180.557 93.9106 180.864 93.708 181.21 93.5598C181.565 93.4016 181.946 93.3226 182.351 93.3226C182.657 93.3226 182.949 93.3769 183.226 93.4856C183.502 93.5845 183.749 93.7327 183.967 93.9304C184.174 94.1082 184.357 94.3256 184.515 94.5826C184.673 94.8296 184.802 95.1014 184.901 95.3979C184.13 95.7042 183.359 96.0056 182.588 96.3021C181.827 96.5986 181.061 96.9049 180.29 97.2212C180.468 97.6066 180.74 97.9179 181.106 98.1551C181.471 98.3922 181.886 98.5108 182.351 98.5108C182.657 98.5108 182.944 98.4565 183.211 98.3478C183.478 98.2391 183.715 98.0859 183.922 97.8882L184.293 98.3329ZM188.85 99H185.989V98.4219H187.145V94.0193H186.078V93.4412H187.634L187.679 94.2268C187.688 94.3948 187.693 94.5035 187.693 94.5529C187.693 94.6024 187.698 94.7111 187.708 94.8791C187.817 94.632 187.955 94.4146 188.123 94.2268C188.301 94.0292 188.499 93.8661 188.716 93.7376C188.924 93.6092 189.136 93.5104 189.354 93.4412C189.581 93.372 189.808 93.3325 190.036 93.3226L190.006 93.9304C189.709 93.9304 189.428 93.9798 189.161 94.0786C188.904 94.1675 188.677 94.296 188.479 94.464C188.252 94.632 188.074 94.8494 187.945 95.1162C187.817 95.3732 187.753 95.6548 187.753 95.9612V98.4219H188.85V99ZM193.975 93.9155C193.6 93.9155 193.254 93.9946 192.938 94.1527C192.631 94.3108 192.374 94.5233 192.167 94.7901C191.969 95.0471 191.831 95.3386 191.752 95.6647C191.673 95.9809 191.668 96.3071 191.737 96.6431C192.409 96.3762 193.076 96.1144 193.738 95.8574C194.41 95.5906 195.082 95.3238 195.754 95.0569C195.576 94.7209 195.329 94.4492 195.013 94.2416C194.707 94.0242 194.361 93.9155 193.975 93.9155ZM195.917 98.3329C195.66 98.5701 195.369 98.7579 195.043 98.8962C194.716 99.0346 194.361 99.1038 193.975 99.1038C193.57 99.1038 193.19 99.0296 192.834 98.8814C192.488 98.7332 192.182 98.5256 191.915 98.2588C191.648 97.992 191.44 97.6856 191.292 97.3398C191.144 96.9939 191.07 96.6184 191.07 96.2132C191.07 95.8179 191.144 95.4424 191.292 95.0866C191.44 94.7308 191.648 94.4245 191.915 94.1675C192.182 93.9106 192.488 93.708 192.834 93.5598C193.19 93.4016 193.57 93.3226 193.975 93.3226C194.282 93.3226 194.573 93.3769 194.85 93.4856C195.127 93.5845 195.374 93.7327 195.591 93.9304C195.799 94.1082 195.981 94.3256 196.139 94.5826C196.298 94.8296 196.426 95.1014 196.525 95.3979C195.754 95.7042 194.983 96.0056 194.212 96.3021C193.451 96.5986 192.686 96.9049 191.915 97.2212C192.093 97.6066 192.364 97.9179 192.73 98.1551C193.096 98.3922 193.511 98.5108 193.975 98.5108C194.282 98.5108 194.568 98.4565 194.835 98.3478C195.102 98.2391 195.339 98.0859 195.547 97.8882L195.917 98.3329ZM205.037 99H202.057V98.4219H202.961V89.2016H202.057V88.6235H205.185C205.491 88.6235 205.827 88.6729 206.193 88.7718C206.568 88.8706 206.914 89.0287 207.231 89.2461C207.547 89.4635 207.814 89.7452 208.031 90.0911C208.248 90.4369 208.357 90.852 208.357 91.3362C208.357 92.1861 208.085 92.8631 207.542 93.3671C206.998 93.8612 206.223 94.1082 205.215 94.1082H203.569V98.4219H205.037V99ZM203.569 89.2016V93.5301H205.111C205.625 93.5301 206.05 93.4609 206.386 93.3226C206.732 93.1744 207.008 92.9915 207.216 92.7741C207.413 92.5666 207.552 92.3344 207.631 92.0774C207.71 91.8205 207.749 91.5734 207.749 91.3362C207.749 91.0496 207.68 90.7779 207.542 90.5209C207.413 90.264 207.236 90.0367 207.008 89.8391C206.761 89.6513 206.48 89.4981 206.163 89.3795C205.847 89.2609 205.501 89.2016 205.126 89.2016H203.569ZM212.258 99H209.397V98.4219H210.553V94.0193H209.486V93.4412H211.042L211.086 94.2268C211.096 94.3948 211.101 94.5035 211.101 94.5529C211.101 94.6024 211.106 94.7111 211.116 94.8791C211.225 94.632 211.363 94.4146 211.531 94.2268C211.709 94.0292 211.907 93.8661 212.124 93.7376C212.332 93.6092 212.544 93.5104 212.762 93.4412C212.989 93.372 213.216 93.3325 213.443 93.3226L213.414 93.9304C213.117 93.9304 212.836 93.9798 212.569 94.0786C212.312 94.1675 212.085 94.296 211.887 94.464C211.66 94.632 211.482 94.8494 211.353 95.1162C211.225 95.3732 211.161 95.6548 211.161 95.9612V98.4219H212.258V99ZM219.488 98.2588C219.221 98.5256 218.905 98.7332 218.539 98.8814C218.184 99.0296 217.803 99.1038 217.398 99.1038C216.983 99.1038 216.597 99.0296 216.242 98.8814C215.896 98.7332 215.594 98.5256 215.337 98.2588C215.071 98.0019 214.863 97.7005 214.715 97.3546C214.567 96.9988 214.493 96.6184 214.493 96.2132C214.493 95.8179 214.567 95.4424 214.715 95.0866C214.863 94.7308 215.071 94.4195 215.337 94.1527C215.594 93.8958 215.901 93.6932 216.257 93.5449C216.612 93.3868 216.993 93.3078 217.398 93.3078C217.803 93.3078 218.184 93.3868 218.539 93.5449C218.905 93.6932 219.221 93.8958 219.488 94.1527C219.745 94.4195 219.948 94.7308 220.096 95.0866C220.254 95.4424 220.333 95.8179 220.333 96.2132C220.333 96.6184 220.254 96.9939 220.096 97.3398C219.948 97.6856 219.745 97.992 219.488 98.2588ZM215.767 97.8289C215.975 98.0464 216.217 98.2144 216.494 98.3329C216.77 98.4515 217.067 98.5108 217.383 98.5108C217.699 98.5108 217.996 98.4515 218.273 98.3329C218.559 98.2144 218.806 98.0464 219.014 97.8289C219.231 97.6313 219.399 97.3941 219.518 97.1174C219.636 96.8407 219.696 96.5393 219.696 96.2132C219.696 95.9068 219.636 95.6153 219.518 95.3386C219.399 95.052 219.231 94.8 219.014 94.5826C218.806 94.3751 218.559 94.212 218.273 94.0934C217.996 93.9748 217.699 93.9155 217.383 93.9155C217.067 93.9155 216.77 93.9748 216.494 94.0934C216.217 94.212 215.975 94.3751 215.767 94.5826C215.56 94.8 215.397 95.0471 215.278 95.3238C215.16 95.6005 215.1 95.8969 215.1 96.2132C215.1 96.5393 215.16 96.8407 215.278 97.1174C215.397 97.3941 215.56 97.6313 215.767 97.8289ZM228.306 99H226.66V98.3922C226.66 98.2736 226.66 98.1649 226.66 98.0661C226.66 97.9574 226.66 97.8388 226.66 97.7104C226.591 97.8882 226.482 98.0612 226.334 98.2292C226.196 98.3873 226.028 98.5306 225.83 98.6591C225.623 98.7974 225.385 98.9061 225.119 98.9852C224.862 99.0642 224.585 99.1038 224.289 99.1038C223.873 99.1038 223.488 99.0296 223.132 98.8814C222.786 98.7332 222.48 98.5256 222.213 98.2588C221.946 97.992 221.739 97.6856 221.591 97.3398C221.442 96.9939 221.368 96.6184 221.368 96.2132C221.368 95.8179 221.442 95.4424 221.591 95.0866C221.739 94.7308 221.946 94.4245 222.213 94.1675C222.48 93.9106 222.786 93.708 223.132 93.5598C223.488 93.4016 223.873 93.3226 224.289 93.3226C224.565 93.3226 224.832 93.3621 225.089 93.4412C225.356 93.5202 225.593 93.624 225.801 93.7525C226.008 93.8908 226.176 94.0391 226.305 94.1972C226.433 94.3553 226.537 94.5184 226.616 94.6864C226.606 94.4195 226.601 94.2021 226.601 94.0341C226.601 93.8661 226.601 93.6487 226.601 93.3819V88.4605H225.549V87.8824H227.209V98.4219H228.306V99ZM224.289 93.9155C223.953 93.9155 223.646 93.9748 223.369 94.0934C223.093 94.212 222.851 94.3751 222.643 94.5826C222.436 94.7901 222.273 95.0372 222.154 95.3238C222.035 95.6005 221.976 95.8969 221.976 96.2132C221.976 96.5393 222.035 96.8456 222.154 97.1322C222.282 97.4188 222.455 97.6609 222.673 97.8586C222.88 98.0661 223.117 98.2292 223.384 98.3478C223.661 98.4565 223.962 98.5108 224.289 98.5108C224.605 98.5108 224.896 98.4565 225.163 98.3478C225.44 98.2292 225.687 98.0661 225.904 97.8586C226.122 97.6609 226.29 97.4188 226.408 97.1322C226.537 96.8456 226.601 96.5393 226.601 96.2132C226.601 95.8871 226.537 95.5807 226.408 95.2941C226.28 94.9976 226.107 94.7456 225.889 94.5381C225.682 94.3405 225.44 94.1873 225.163 94.0786C224.886 93.9699 224.595 93.9155 224.289 93.9155ZM234.666 97.5621C234.469 98.0365 234.147 98.4169 233.703 98.7035C233.268 98.9802 232.779 99.1186 232.235 99.1186C231.692 99.1186 231.262 98.9654 230.946 98.6591C230.629 98.3527 230.461 97.9525 230.442 97.4584V94.0193H229.345V93.4412H231.049V97.2953C231.069 97.6214 231.183 97.9031 231.39 98.1402C231.608 98.3675 231.924 98.4911 232.339 98.5108C232.645 98.5108 232.932 98.4614 233.199 98.3626C233.475 98.2638 233.723 98.1205 233.94 97.9327C234.147 97.7647 234.311 97.5572 234.429 97.3101C234.558 97.0532 234.622 96.7765 234.622 96.48V94.0193H233.525V93.4412H235.23V98.4664H236.282V99H234.696L234.666 98.2292V97.5621ZM242.065 98.4664C241.808 98.664 241.526 98.8221 241.22 98.9407C240.913 99.0494 240.582 99.1038 240.226 99.1038C239.821 99.1038 239.441 99.0296 239.085 98.8814C238.739 98.7332 238.438 98.5256 238.181 98.2588C237.904 98.0019 237.692 97.7005 237.543 97.3546C237.395 96.9988 237.321 96.6184 237.321 96.2132C237.321 95.8179 237.395 95.4424 237.543 95.0866C237.692 94.7308 237.899 94.4245 238.166 94.1675C238.433 93.9106 238.739 93.708 239.085 93.5598C239.441 93.4016 239.821 93.3226 240.226 93.3226C240.582 93.3226 240.918 93.3819 241.234 93.5005C241.551 93.6092 241.832 93.7624 242.079 93.96V95.4127H241.516V94.3158C241.338 94.1873 241.141 94.0885 240.923 94.0193C240.706 93.9501 240.473 93.9155 240.226 93.9155C239.91 93.9155 239.614 93.9748 239.337 94.0934C239.06 94.2021 238.823 94.3553 238.625 94.5529C238.398 94.7704 238.225 95.0224 238.107 95.3089C237.988 95.5856 237.929 95.8871 237.929 96.2132C237.929 96.5393 237.988 96.8456 238.107 97.1322C238.225 97.4089 238.393 97.6511 238.611 97.8586C238.808 98.0562 239.045 98.2144 239.322 98.3329C239.609 98.4515 239.91 98.5108 240.226 98.5108C240.503 98.5108 240.765 98.4664 241.012 98.3774C241.259 98.2885 241.481 98.1649 241.679 98.0068L242.065 98.4664ZM246.224 99H244.401V94.0341H243.111V93.4412H244.401V89.8242H245.009V93.4412H246.728V94.0341H245.009V98.4219H246.224V99ZM251.167 98.5256C251.019 98.7035 250.826 98.8468 250.589 98.9555C250.362 99.0642 250.08 99.1186 249.744 99.1186C249.428 99.1186 249.117 99.0791 248.81 99C248.514 98.9308 248.252 98.7875 248.025 98.5701V97.488H248.573V98.244C248.761 98.3626 248.954 98.4416 249.151 98.4812C249.349 98.5108 249.556 98.5256 249.774 98.5256C249.922 98.5256 250.065 98.5059 250.204 98.4664C250.342 98.4169 250.471 98.3478 250.589 98.2588C250.698 98.1699 250.782 98.0661 250.841 97.9475C250.91 97.8191 250.945 97.6659 250.945 97.488C250.945 97.2311 250.881 97.0334 250.752 96.8951C250.624 96.7567 250.456 96.648 250.248 96.5689C250.051 96.48 249.833 96.4009 249.596 96.3318C249.359 96.2626 249.136 96.1786 248.929 96.0798C248.721 95.9809 248.548 95.8426 248.41 95.6647C248.282 95.4769 248.217 95.22 248.217 94.8939C248.217 94.6271 248.262 94.3998 248.351 94.212C248.45 94.0242 248.578 93.8661 248.736 93.7376C248.894 93.6092 249.077 93.5153 249.285 93.456C249.492 93.3868 249.685 93.3522 249.863 93.3522C249.991 93.3522 250.115 93.3621 250.233 93.3819C250.352 93.3918 250.49 93.4214 250.648 93.4708C250.777 93.5202 250.9 93.5795 251.019 93.6487C251.138 93.708 251.246 93.7821 251.345 93.8711V94.9532H250.782V94.1824C250.644 94.1033 250.5 94.044 250.352 94.0045C250.204 93.9649 250.046 93.9452 249.878 93.9452C249.749 93.9452 249.616 93.9649 249.477 94.0045C249.349 94.0341 249.235 94.0835 249.136 94.1527C249.048 94.2318 248.973 94.3306 248.914 94.4492C248.855 94.5678 248.825 94.7111 248.825 94.8791C248.825 95.0965 248.894 95.2694 249.033 95.3979C249.181 95.5165 249.354 95.6153 249.552 95.6944C249.759 95.7833 249.976 95.8673 250.204 95.9464C250.441 96.0155 250.663 96.1094 250.871 96.228C251.068 96.3466 251.232 96.4998 251.36 96.6875C251.498 96.8753 251.568 97.1273 251.568 97.4435C251.568 97.6214 251.533 97.8092 251.464 98.0068C251.404 98.1946 251.306 98.3675 251.167 98.5256ZM259.855 99H256.994V98.4219H257.898V94.0341H256.994V93.4412H257.898V91.3214C257.898 90.7779 257.977 90.2936 258.135 89.8687C258.294 89.4438 258.511 89.088 258.788 88.8014C259.064 88.5148 259.386 88.2974 259.751 88.1492C260.127 87.9911 260.532 87.9021 260.967 87.8824V88.4605C260.631 88.4704 260.31 88.5395 260.003 88.668C259.707 88.7965 259.45 88.9842 259.232 89.2313C259.005 89.4784 258.827 89.7748 258.699 90.1207C258.57 90.4666 258.506 90.8619 258.506 91.3066V93.4412H260.359V94.0341H258.506V98.4219H259.855V99ZM264.343 99H261.482V98.4219H262.579V88.4605H261.526V87.8824H263.186V98.4219H264.343V99ZM270.386 98.2588C270.119 98.5256 269.803 98.7332 269.437 98.8814C269.082 99.0296 268.701 99.1038 268.296 99.1038C267.881 99.1038 267.495 99.0296 267.14 98.8814C266.794 98.7332 266.492 98.5256 266.235 98.2588C265.969 98.0019 265.761 97.7005 265.613 97.3546C265.465 96.9988 265.39 96.6184 265.39 96.2132C265.39 95.8179 265.465 95.4424 265.613 95.0866C265.761 94.7308 265.969 94.4195 266.235 94.1527C266.492 93.8958 266.799 93.6932 267.154 93.5449C267.51 93.3868 267.891 93.3078 268.296 93.3078C268.701 93.3078 269.082 93.3868 269.437 93.5449C269.803 93.6932 270.119 93.8958 270.386 94.1527C270.643 94.4195 270.846 94.7308 270.994 95.0866C271.152 95.4424 271.231 95.8179 271.231 96.2132C271.231 96.6184 271.152 96.9939 270.994 97.3398C270.846 97.6856 270.643 97.992 270.386 98.2588ZM266.665 97.8289C266.873 98.0464 267.115 98.2144 267.392 98.3329C267.668 98.4515 267.965 98.5108 268.281 98.5108C268.597 98.5108 268.894 98.4515 269.17 98.3329C269.457 98.2144 269.704 98.0464 269.912 97.8289C270.129 97.6313 270.297 97.3941 270.416 97.1174C270.534 96.8407 270.594 96.5393 270.594 96.2132C270.594 95.9068 270.534 95.6153 270.416 95.3386C270.297 95.052 270.129 94.8 269.912 94.5826C269.704 94.3751 269.457 94.212 269.17 94.0934C268.894 93.9748 268.597 93.9155 268.281 93.9155C267.965 93.9155 267.668 93.9748 267.392 94.0934C267.115 94.212 266.873 94.3751 266.665 94.5826C266.458 94.8 266.295 95.0471 266.176 95.3238C266.058 95.6005 265.998 95.8969 265.998 96.2132C265.998 96.5393 266.058 96.8407 266.176 97.1174C266.295 97.3941 266.458 97.6313 266.665 97.8289ZM278.122 95.3386L276.091 99.3409C275.646 98.4515 275.201 97.5671 274.757 96.6875C274.322 95.808 273.882 94.9186 273.437 94.0193H272.266V93.4412H274.92V94.0193H274.045C274.401 94.7308 274.757 95.4522 275.112 96.1835C275.478 96.9049 275.814 97.5868 276.12 98.2292C276.427 97.6264 276.713 97.0581 276.98 96.5245C277.257 95.9908 277.539 95.4522 277.825 94.9087L277.38 94.0193H276.328V93.4412H279.055V94.0193H278.077C278.433 94.7308 278.779 95.4374 279.115 96.1391C279.461 96.8308 279.797 97.5275 280.123 98.2292C280.459 97.5176 280.795 96.816 281.131 96.1242C281.467 95.4325 281.813 94.7308 282.168 94.0193H281.309V93.4412H283.799V94.0193H282.791C282.346 94.9186 281.902 95.808 281.457 96.6875C281.012 97.5671 280.567 98.4515 280.123 99.3409L278.122 95.3386ZM290.506 98.5108C290.506 98.6492 290.457 98.7678 290.358 98.8666C290.259 98.9555 290.15 99 290.032 99C289.903 99 289.79 98.9555 289.691 98.8666C289.592 98.7678 289.543 98.6492 289.543 98.5108C289.543 98.3824 289.592 98.2736 289.691 98.1847C289.79 98.0859 289.903 98.0365 290.032 98.0365C290.15 98.0365 290.259 98.0859 290.358 98.1847C290.457 98.2736 290.506 98.3824 290.506 98.5108ZM297.368 98.5108C297.368 98.6492 297.318 98.7678 297.22 98.8666C297.121 98.9555 297.012 99 296.893 99C296.765 99 296.651 98.9555 296.552 98.8666C296.454 98.7678 296.404 98.6492 296.404 98.5108C296.404 98.3824 296.454 98.2736 296.552 98.1847C296.651 98.0859 296.765 98.0365 296.893 98.0365C297.012 98.0365 297.121 98.0859 297.22 98.1847C297.318 98.2736 297.368 98.3824 297.368 98.5108ZM304.229 98.5108C304.229 98.6492 304.18 98.7678 304.081 98.8666C303.982 98.9555 303.874 99 303.755 99C303.627 99 303.513 98.9555 303.414 98.8666C303.315 98.7678 303.266 98.6492 303.266 98.5108C303.266 98.3824 303.315 98.2736 303.414 98.1847C303.513 98.0859 303.627 98.0365 303.755 98.0365C303.874 98.0365 303.982 98.0859 304.081 98.1847C304.18 98.2736 304.229 98.3824 304.229 98.5108Z" fill="white"/>
</svg>
